<svg width="232" height="353" viewBox="0 0 232 353" fill="none" xmlns="http://www.w3.org/2000/svg">
<path d="M76.8867 50L79.7735 45H74L76.8867 50ZM76.8867 37H76.3867V38.625H76.8867H77.3867V37H76.8867ZM76.8867 41.875H76.3867V45.125H76.8867H77.3867V41.875H76.8867Z" fill="black"/>
<path d="M76.8867 102L79.7735 97H74L76.8867 102ZM76.8867 89H76.3867V90.625H76.8867H77.3867V89H76.8867ZM76.8867 93.875H76.3867V97.125H76.8867H77.3867V93.875H76.8867Z" fill="black"/>
<path d="M76.8867 154L79.7735 149H74L76.8867 154ZM76.8867 141H76.3867V142.625H76.8867H77.3867V141H76.8867ZM76.8867 145.875H76.3867V149.125H76.8867H77.3867V145.875H76.8867Z" fill="black"/>
<path d="M76.8867 316L79.7735 311H74L76.8867 316ZM76.8867 303H76.3867V304.625H76.8867H77.3867V303H76.8867ZM76.8867 307.875H76.3867V311.125H76.8867H77.3867V307.875H76.8867Z" fill="black"/>
<path d="M76.8867 263L79.7735 258H74L76.8867 263ZM76.8867 232H76.3867V233.55H76.8867H77.3867V232H76.8867ZM76.8867 236.65H76.3867V239.75H76.8867H77.3867V236.65H76.8867ZM76.8867 242.85H76.3867V245.95H76.8867H77.3867V242.85H76.8867ZM76.8867 249.05H76.3867V252.15H76.8867H77.3867V249.05H76.8867ZM76.8867 255.25H76.3867V258.35H76.8867H77.3867V255.25H76.8867Z" fill="black"/>
<path d="M2.88672 336.001L2.88672 336.501C2.61057 336.501 2.38672 336.277 2.38672 336.001L2.88672 336.001ZM2.88672 264.662L5.77347 269.662L-3.28805e-05 269.662L2.88672 264.662ZM2.88672 269.121L3.38672 269.121L3.38672 272.093L2.88672 272.093L2.38672 272.093L2.38672 269.121L2.88672 269.121ZM2.88672 275.066L3.38672 275.066L3.38672 278.038L2.88672 278.038L2.38672 278.038L2.38672 275.066L2.88672 275.066ZM2.88672 281.011L3.38672 281.011L3.38672 283.983L2.88672 283.983L2.38672 283.983L2.38672 281.011L2.88672 281.011ZM2.88672 286.955L3.38672 286.955L3.38672 289.928L2.88672 289.928L2.38672 289.928L2.38672 286.955L2.88672 286.955ZM2.88672 292.9L3.38672 292.9L3.38672 295.873L2.88672 295.873L2.38672 295.873L2.38672 292.9L2.88672 292.9ZM2.88672 298.845L3.38672 298.845L3.38672 301.818L2.88672 301.818L2.38672 301.818L2.38672 298.845L2.88672 298.845ZM2.88672 304.79L3.38672 304.79L3.38672 307.763L2.88672 307.763L2.38672 307.763L2.38672 304.79L2.88672 304.79ZM2.88672 310.735L3.38672 310.735L3.38672 313.708L2.88672 313.708L2.38672 313.708L2.38672 310.735L2.88672 310.735ZM2.88672 316.68L3.38672 316.68L3.38672 319.652L2.88672 319.652L2.38672 319.652L2.38672 316.68L2.88672 316.68ZM2.88672 322.625L3.38672 322.625L3.38672 325.597L2.88672 325.597L2.38672 325.597L2.38672 322.625L2.88672 322.625ZM2.88672 328.57L3.38672 328.57L3.38672 331.542L2.88672 331.542L2.38672 331.542L2.38672 328.57L2.88672 328.57ZM2.88672 334.515L3.38672 334.515L3.38672 336.001L2.88672 336.001L2.38672 336.001L2.38672 334.515L2.88672 334.515ZM2.88672 336.001L2.88672 335.501L4.42838 335.501L4.42838 336.001L4.42838 336.501L2.88672 336.501L2.88672 336.001ZM7.51171 336.001L7.51171 335.501L10.595 335.501L10.595 336.001L10.595 336.501L7.51171 336.501L7.51171 336.001ZM13.6784 336.001L13.6784 335.501L16.7617 335.501L16.7617 336.001L16.7617 336.501L13.6784 336.501L13.6784 336.001ZM19.845 336.001L19.845 335.501L22.9284 335.501L22.9284 336.001L22.9284 336.501L19.845 336.501L19.845 336.001ZM26.0117 336.001L26.0117 335.501L29.095 335.501L29.095 336.001L29.095 336.501L26.0117 336.501L26.0117 336.001ZM32.1784 336.001L32.1784 335.501L35.2617 335.501L35.2617 336.001L35.2617 336.501L32.1784 336.501L32.1784 336.001ZM38.345 336.001L38.345 335.501L41.4284 335.501L41.4284 336.001L41.4284 336.501L38.345 336.501L38.345 336.001ZM44.5117 336.001L44.5117 335.501L47.595 335.501L47.595 336.001L47.595 336.501L44.5117 336.501L44.5117 336.001ZM50.6784 336.001L50.6784 335.501L53.7617 335.501L53.7617 336.001L53.7617 336.501L50.6784 336.501L50.6784 336.001ZM56.845 336.001L56.845 335.501L59.9284 335.501L59.9284 336.001L59.9284 336.501L56.845 336.501L56.845 336.001ZM63.0117 336.001L63.0117 335.501L66.095 335.501L66.095 336.001L66.095 336.501L63.0117 336.501L63.0117 336.001ZM69.1784 336.001L69.1784 335.501L72.2617 335.501L72.2617 336.001L72.2617 336.501L69.1784 336.501L69.1784 336.001ZM75.345 336.001L75.345 335.501L76.8867 335.501L76.8867 336.001L76.8867 336.501L75.345 336.501L75.345 336.001Z" fill="black"/>
<path d="M2.88672 163.104L5.77347 168.104L-3.28805e-05 168.104L2.88672 163.104ZM2.88672 167.718L3.38672 167.718L3.38672 170.794L2.88672 170.794L2.38672 170.794L2.38672 167.718L2.88672 167.718ZM2.88672 173.871L3.38672 173.871L3.38672 176.947L2.88672 176.947L2.38672 176.947L2.38672 173.871L2.88672 173.871ZM2.88672 180.023L3.38672 180.023L3.38672 183.099L2.88672 183.099L2.38672 183.099L2.38672 180.023L2.88672 180.023ZM2.88672 186.176L3.38672 186.176L3.38672 189.252L2.88672 189.252L2.38672 189.252L2.38672 186.176L2.88672 186.176ZM2.88672 192.328L3.38672 192.328L3.38672 195.405L2.88672 195.405L2.38672 195.405L2.38672 192.328L2.88672 192.328ZM2.88672 198.481L3.38672 198.481L3.38672 201.557L2.88672 201.557L2.38672 201.557L2.38672 198.481L2.88672 198.481ZM2.88672 204.633L3.38672 204.633L3.38672 207.71L2.88672 207.71L2.38672 207.71L2.38672 204.633L2.88672 204.633ZM2.88672 210.786L3.38672 210.786L3.38672 213.862L2.88672 213.862L2.38672 213.862L2.38672 210.786L2.88672 210.786ZM2.88672 216.939L3.38672 216.939L3.38672 220.015L2.88672 220.015L2.38672 220.015L2.38672 216.939L2.88672 216.939ZM2.88672 223.091L3.38672 223.091L3.38672 226.167L2.88672 226.167L2.38672 226.167L2.38672 223.091L2.88672 223.091ZM2.88672 229.244L3.38672 229.244L3.38672 232.32L2.88672 232.32L2.38672 232.32L2.38672 229.244L2.88672 229.244ZM2.88672 235.396L3.38672 235.396L3.38672 238.473L2.88672 238.473L2.38672 238.473L2.38672 235.396L2.88672 235.396ZM2.88672 241.549L3.38672 241.549L3.38672 244.625L2.88672 244.625L2.38672 244.625L2.38672 241.549L2.88672 241.549ZM2.88672 247.701L3.38672 247.701L3.38671 250.778L2.88671 250.778L2.38671 250.778L2.38672 247.701L2.88672 247.701ZM2.88671 253.854L3.38671 253.854L3.38671 256.93L2.88671 256.93L2.38671 256.93L2.38671 253.854L2.88671 253.854ZM2.88671 260.007L3.38671 260.007L3.38671 261.545L2.88671 261.545L2.38671 261.545L2.38671 260.007L2.88671 260.007Z" fill="black"/>
<path d="M2.88672 62.1699L5.77347 67.1699L-3.28805e-05 67.1699L2.88672 62.1699ZM2.88672 66.7844L3.38672 66.7844L3.38672 69.8606L2.88672 69.8606L2.38672 69.8606L2.38672 66.7844L2.88672 66.7844ZM2.88672 72.9369L3.38672 72.9369L3.38672 76.0132L2.88672 76.0132L2.38672 76.0132L2.38672 72.9369L2.88672 72.9369ZM2.88672 79.0895L3.38672 79.0895L3.38672 82.1658L2.88672 82.1658L2.38672 82.1658L2.38672 79.0895L2.88672 79.0895ZM2.88672 85.2421L3.38672 85.2421L3.38672 88.3184L2.88672 88.3184L2.38672 88.3184L2.38672 85.2421L2.88672 85.2421ZM2.88672 91.3947L3.38672 91.3947L3.38672 94.471L2.88672 94.471L2.38672 94.471L2.38672 91.3947L2.88672 91.3947ZM2.88672 97.5473L3.38672 97.5473L3.38672 100.624L2.88672 100.624L2.38672 100.624L2.38672 97.5473L2.88672 97.5473ZM2.88672 103.7L3.38672 103.7L3.38672 106.776L2.88672 106.776L2.38672 106.776L2.38672 103.7L2.88672 103.7ZM2.88672 109.852L3.38672 109.852L3.38672 112.929L2.88672 112.929L2.38672 112.929L2.38672 109.852L2.88672 109.852ZM2.88672 116.005L3.38672 116.005L3.38672 119.081L2.88672 119.081L2.38672 119.081L2.38672 116.005L2.88672 116.005ZM2.88672 122.158L3.38672 122.158L3.38672 125.234L2.88672 125.234L2.38672 125.234L2.38672 122.158L2.88672 122.158ZM2.88672 128.31L3.38672 128.31L3.38672 131.386L2.88672 131.386L2.38672 131.386L2.38672 128.31L2.88672 128.31ZM2.88672 134.463L3.38672 134.463L3.38672 137.539L2.88672 137.539L2.38672 137.539L2.38672 134.463L2.88672 134.463ZM2.88672 140.615L3.38672 140.615L3.38672 143.692L2.88672 143.692L2.38672 143.692L2.38672 140.615L2.88672 140.615ZM2.88672 146.768L3.38672 146.768L3.38671 149.844L2.88671 149.844L2.38671 149.844L2.38672 146.768L2.88672 146.768ZM2.88671 152.92L3.38671 152.92L3.38671 155.997L2.88671 155.997L2.38671 155.997L2.38671 152.92L2.88671 152.92ZM2.88671 159.073L3.38671 159.073L3.38671 160.611L2.88671 160.611L2.38671 160.611L2.38671 159.073L2.88671 159.073Z" fill="black"/>
<path d="M2.88672 57.498L2.88672 17L75.5997 17" stroke="black" stroke-linejoin="round" stroke-dasharray="3 3"/>
<path d="M97.8867 173L230.887 173L230.887 336L108.024 336" stroke="black" stroke-linejoin="round" stroke-dasharray="3 3"/>
<path d="M180.887 232V232.5C181.163 232.5 181.387 232.276 181.387 232H180.887ZM180.887 173H181.387C181.387 172.724 181.163 172.5 180.887 172.5V173ZM156.886 173L161.886 175.887V170.113L156.886 173ZM137.434 232V232.5H138.986V232V231.5H137.434V232ZM142.09 232V232.5H145.193V232V231.5H142.09V232ZM148.297 232V232.5H151.401V232V231.5H148.297V232ZM154.505 232V232.5H157.608V232V231.5H154.505V232ZM160.712 232V232.5H163.816V232V231.5H160.712V232ZM166.92 232V232.5H170.023V232V231.5H166.92V232ZM173.127 232V232.5H176.231V232V231.5H173.127V232ZM179.335 232V232.5H180.887V232V231.5H179.335V232ZM180.887 232H181.387V230.525H180.887H180.387V232H180.887ZM180.887 227.575H181.387V224.625H180.887H180.387V227.575H180.887ZM180.887 221.675H181.387V218.725H180.887H180.387V221.675H180.887ZM180.887 215.775H181.387V212.825H180.887H180.387V215.775H180.887ZM180.887 209.875H181.387V206.925H180.887H180.387V209.875H180.887ZM180.887 203.975H181.387V201.025H180.887H180.387V203.975H180.887ZM180.887 198.075H181.387V195.125H180.887H180.387V198.075H180.887ZM180.887 192.175H181.387V189.225H180.887H180.387V192.175H180.887ZM180.887 186.275H181.387V183.325H180.887H180.387V186.275H180.887ZM180.887 180.375H181.387V177.425H180.887H180.387V180.375H180.887ZM180.887 174.475H181.387V173H180.887H180.387V174.475H180.887ZM180.887 173V172.5H179.387V173V173.5H180.887V173ZM176.387 173V172.5H173.386V173V173.5H176.387V173ZM170.386 173V172.5H167.386V173V173.5H170.386V173ZM164.386 173V172.5H161.386V173V173.5H164.386V173Z" fill="black"/>
<path d="M76.8867 173V172.5C76.6106 172.5 76.3867 172.724 76.3867 173H76.8867ZM76.8867 232H76.3867C76.3867 232.276 76.6106 232.5 76.8867 232.5V232ZM107.022 232L102.022 229.113V234.887L107.022 232ZM107.022 173V172.5H105.515V173V173.5H107.022V173ZM102.502 173V172.5H99.4883V173V173.5H102.502V173ZM96.4748 173V172.5H93.4612V173V173.5H96.4748V173ZM90.4477 173V172.5H87.4341V173V173.5H90.4477V173ZM84.4206 173V172.5H81.407V173V173.5H84.4206V173ZM78.3935 173V172.5H76.8867V173V173.5H78.3935V173ZM76.8867 173H76.3867V174.475H76.8867H77.3867V173H76.8867ZM76.8867 177.425H76.3867V180.375H76.8867H77.3867V177.425H76.8867ZM76.8867 183.325H76.3867V186.275H76.8867H77.3867V183.325H76.8867ZM76.8867 189.225H76.3867V192.175H76.8867H77.3867V189.225H76.8867ZM76.8867 195.125H76.3867V198.075H76.8867H77.3867V195.125H76.8867ZM76.8867 201.025H76.3867V203.975H76.8867H77.3867V201.025H76.8867ZM76.8867 206.925H76.3867V209.875H76.8867H77.3867V206.925H76.8867ZM76.8867 212.825H76.3867V215.775H76.8867H77.3867V212.825H76.8867ZM76.8867 218.725H76.3867V221.675H76.8867H77.3867V218.725H76.8867ZM76.8867 224.625H76.3867V227.575H76.8867H77.3867V224.625H76.8867ZM76.8867 230.525H76.3867V232H76.8867H77.3867V230.525H76.8867ZM76.8867 232V232.5H78.3935V232V231.5H76.8867V232ZM81.407 232V232.5H84.4206V232V231.5H81.407V232ZM87.4341 232V232.5H90.4477V232V231.5H87.4341V232ZM93.4612 232V232.5H96.4748V232V231.5H93.4612V232ZM99.4883 232V232.5H102.502V232V231.5H99.4883V232Z" fill="black"/>
<rect x="25.8867" width="100" height="35" fill="#A18CBB"/>
<rect x="25.8867" y="52" width="100" height="35" fill="#A18CBB"/>
<rect x="25.8867" y="104" width="100" height="35" fill="#A18CBB"/>
<rect x="25.8867" y="156" width="128" height="35" fill="#A18CBB"/>
<rect x="25.8867" y="266" width="100" height="35" fill="#A18CBB"/>
<rect x="25.8867" y="318" width="100" height="35" fill="#A18CBB"/>
<rect x="110.887" y="211" width="100" height="35" fill="#A18CBB"/>
<path d="M52.4147 14.44H47.8667V17.308H51.2867V18.148H47.8667V21.16H52.4147V22H46.9067V13.6H52.4147V14.44ZM54.1232 16H54.9512L55.0112 16.864C55.1872 16.576 55.4232 16.348 55.7192 16.18C56.0232 16.004 56.3832 15.916 56.7992 15.916C57.2232 15.916 57.6072 16.02 57.9512 16.228C58.3032 16.428 58.5752 16.728 58.7672 17.128C58.9512 16.72 59.2312 16.416 59.6072 16.216C59.9832 16.016 60.3992 15.916 60.8552 15.916C61.3032 15.916 61.6992 16.016 62.0432 16.216C62.3872 16.408 62.6552 16.7 62.8472 17.092C63.0392 17.476 63.1352 17.96 63.1352 18.544V22H62.2352V18.652C62.2352 18.028 62.0992 17.556 61.8272 17.236C61.5632 16.908 61.1832 16.744 60.6872 16.744C60.1832 16.744 59.7832 16.92 59.4872 17.272C59.1912 17.616 59.0432 18.128 59.0432 18.808V22H58.1432V18.652C58.1432 18.028 58.0152 17.556 57.7592 17.236C57.5032 16.908 57.1272 16.744 56.6312 16.744C56.1272 16.744 55.7312 16.92 55.4432 17.272C55.1632 17.616 55.0232 18.128 55.0232 18.808V22H54.1232V16ZM65.685 20.788L65.781 20.776V24.4H64.881V16H65.709L65.769 17.116C65.953 16.78 66.225 16.496 66.585 16.264C66.945 16.032 67.397 15.916 67.941 15.916C68.461 15.916 68.929 16.044 69.345 16.3C69.761 16.548 70.089 16.904 70.329 17.368C70.569 17.824 70.689 18.368 70.689 19C70.689 19.624 70.573 20.168 70.341 20.632C70.117 21.088 69.797 21.444 69.381 21.7C68.973 21.956 68.493 22.084 67.941 22.084C67.365 22.084 66.889 21.96 66.513 21.712C66.137 21.464 65.861 21.156 65.685 20.788ZM69.717 19C69.717 18.312 69.537 17.768 69.177 17.368C68.825 16.96 68.349 16.756 67.749 16.756C67.373 16.756 67.033 16.844 66.729 17.02C66.433 17.196 66.201 17.452 66.033 17.788C65.865 18.124 65.781 18.528 65.781 19C65.781 19.464 65.865 19.864 66.033 20.2C66.201 20.536 66.433 20.796 66.729 20.98C67.033 21.156 67.373 21.244 67.749 21.244C68.349 21.244 68.825 21.044 69.177 20.644C69.537 20.236 69.717 19.688 69.717 19ZM75.9144 22L75.8424 20.92C75.6744 21.288 75.4264 21.576 75.0984 21.784C74.7704 21.984 74.3544 22.084 73.8504 22.084C73.4184 22.084 73.0504 22.016 72.7464 21.88C72.4424 21.744 72.2064 21.552 72.0384 21.304C71.8784 21.048 71.7984 20.748 71.7984 20.404C71.7984 19.9 71.9864 19.488 72.3624 19.168C72.7384 18.84 73.2824 18.64 73.9944 18.568L75.8424 18.364V17.884C75.8424 17.548 75.7184 17.28 75.4704 17.08C75.2224 16.872 74.8864 16.768 74.4624 16.768C74.0464 16.768 73.6984 16.864 73.4184 17.056C73.1464 17.248 72.9584 17.524 72.8544 17.884L72.0384 17.596C72.1984 17.068 72.4904 16.656 72.9144 16.36C73.3464 16.064 73.8704 15.916 74.4864 15.916C75.1984 15.916 75.7504 16.1 76.1424 16.468C76.5424 16.828 76.7424 17.32 76.7424 17.944V22H75.9144ZM75.8424 19.132L73.9824 19.348C73.5824 19.396 73.2784 19.508 73.0704 19.684C72.8624 19.852 72.7584 20.076 72.7584 20.356C72.7584 20.636 72.8584 20.86 73.0584 21.028C73.2664 21.196 73.5624 21.28 73.9464 21.28C74.3864 21.28 74.7464 21.192 75.0264 21.016C75.3064 20.84 75.5104 20.604 75.6384 20.308C75.7744 20.004 75.8424 19.676 75.8424 19.324V19.132ZM78.8822 16V14.32H79.7822V16H81.3782V16.84H79.7822V20.068C79.7822 20.436 79.8582 20.704 80.0102 20.872C80.1702 21.04 80.3702 21.14 80.6102 21.172C80.8582 21.204 81.1142 21.204 81.3782 21.172V21.952C81.0662 22.024 80.7582 22.044 80.4542 22.012C80.1582 21.98 79.8902 21.892 79.6502 21.748C79.4182 21.596 79.2302 21.384 79.0862 21.112C78.9502 20.84 78.8822 20.492 78.8822 20.068V16.84H77.9822V16H78.8822ZM82.717 13.36H83.617V16.816C83.809 16.528 84.069 16.308 84.397 16.156C84.725 15.996 85.093 15.916 85.501 15.916C85.941 15.916 86.333 16.016 86.677 16.216C87.021 16.416 87.289 16.712 87.481 17.104C87.681 17.496 87.781 17.984 87.781 18.568V22H86.821V18.676C86.821 18.052 86.689 17.576 86.425 17.248C86.161 16.912 85.777 16.744 85.273 16.744C84.753 16.744 84.345 16.92 84.049 17.272C83.761 17.624 83.617 18.136 83.617 18.808V22H82.717V13.36ZM89.7056 16H90.5936V22H89.7056V16ZM90.1616 14.8C89.9776 14.8 89.8256 14.74 89.7056 14.62C89.5856 14.5 89.5256 14.352 89.5256 14.176C89.5256 13.992 89.5856 13.84 89.7056 13.72C89.8256 13.6 89.9776 13.54 90.1616 13.54C90.3296 13.54 90.4736 13.6 90.5936 13.72C90.7216 13.84 90.7856 13.992 90.7856 14.176C90.7856 14.352 90.7216 14.5 90.5936 14.62C90.4736 14.74 90.3296 14.8 90.1616 14.8ZM96.7953 16.78L93.4233 21.16H96.8313V22H92.2953V21.22L95.6673 16.84H92.3313V16H96.7953V16.78ZM100.882 22.084C100.322 22.084 99.8215 21.948 99.3815 21.676C98.9495 21.404 98.6095 21.032 98.3615 20.56C98.1135 20.088 97.9895 19.548 97.9895 18.94C97.9895 18.356 98.1135 17.836 98.3615 17.38C98.6095 16.924 98.9495 16.568 99.3815 16.312C99.8135 16.048 100.306 15.916 100.858 15.916C101.402 15.916 101.886 16.036 102.31 16.276C102.742 16.516 103.078 16.848 103.318 17.272C103.558 17.696 103.67 18.18 103.654 18.724C103.654 18.812 103.65 18.904 103.642 19C103.634 19.096 103.626 19.2 103.618 19.312H98.9735C98.9895 19.688 99.0815 20.02 99.2495 20.308C99.4175 20.596 99.6375 20.824 99.9095 20.992C100.19 21.152 100.506 21.232 100.858 21.232C101.322 21.232 101.714 21.144 102.034 20.968C102.362 20.792 102.598 20.54 102.742 20.212L103.522 20.524C103.282 21.028 102.934 21.416 102.478 21.688C102.022 21.952 101.49 22.084 100.882 22.084ZM102.67 18.532C102.678 18.188 102.602 17.884 102.442 17.62C102.29 17.356 102.074 17.148 101.794 16.996C101.514 16.844 101.19 16.768 100.822 16.768C100.502 16.768 100.21 16.844 99.9455 16.996C99.6815 17.148 99.4615 17.36 99.2855 17.632C99.1175 17.896 99.0175 18.196 98.9855 18.532H102.67Z" fill="black"/>
<path d="M61.6787 65.6C62.6067 65.6 63.3987 65.772 64.0547 66.116C64.7187 66.452 65.2267 66.936 65.5787 67.568C65.9387 68.2 66.1187 68.952 66.1187 69.824C66.1187 70.688 65.9387 71.432 65.5787 72.056C65.2267 72.68 64.7187 73.16 64.0547 73.496C63.3987 73.832 62.6067 74 61.6787 74H58.9067V65.6H61.6787ZM61.6787 73.16C62.8227 73.16 63.6867 72.868 64.2707 72.284C64.8547 71.7 65.1467 70.88 65.1467 69.824C65.1467 68.76 64.8547 67.932 64.2707 67.34C63.6867 66.74 62.8227 66.44 61.6787 66.44H59.8667V73.16H61.6787ZM70.0729 74.084C69.5129 74.084 69.0129 73.948 68.5729 73.676C68.1409 73.404 67.8009 73.032 67.5529 72.56C67.3049 72.088 67.1809 71.548 67.1809 70.94C67.1809 70.356 67.3049 69.836 67.5529 69.38C67.8009 68.924 68.1409 68.568 68.5729 68.312C69.0049 68.048 69.4969 67.916 70.0489 67.916C70.5929 67.916 71.0769 68.036 71.5009 68.276C71.9329 68.516 72.2689 68.848 72.5089 69.272C72.7489 69.696 72.8609 70.18 72.8449 70.724C72.8449 70.812 72.8409 70.904 72.8329 71C72.8249 71.096 72.8169 71.2 72.8089 71.312H68.1649C68.1809 71.688 68.2729 72.02 68.4409 72.308C68.6089 72.596 68.8289 72.824 69.1009 72.992C69.3809 73.152 69.6969 73.232 70.0489 73.232C70.5129 73.232 70.9049 73.144 71.2249 72.968C71.5529 72.792 71.7889 72.54 71.9329 72.212L72.7129 72.524C72.4729 73.028 72.1249 73.416 71.6689 73.688C71.2129 73.952 70.6809 74.084 70.0729 74.084ZM71.8609 70.532C71.8689 70.188 71.7929 69.884 71.6329 69.62C71.4809 69.356 71.2649 69.148 70.9849 68.996C70.7049 68.844 70.3809 68.768 70.0129 68.768C69.6929 68.768 69.4009 68.844 69.1369 68.996C68.8729 69.148 68.6529 69.36 68.4769 69.632C68.3089 69.896 68.2089 70.196 68.1769 70.532H71.8609ZM78.3463 66.836C78.1703 66.836 78.0183 66.776 77.8903 66.656C77.7623 66.528 77.6983 66.376 77.6983 66.2C77.6983 66.008 77.7623 65.852 77.8903 65.732C78.0183 65.604 78.1703 65.54 78.3463 65.54C78.5303 65.54 78.6823 65.604 78.8023 65.732C78.9303 65.852 78.9943 66.008 78.9943 66.2C78.9943 66.376 78.9303 66.528 78.8023 66.656C78.6823 66.776 78.5303 66.836 78.3463 66.836ZM78.7783 67.988V74H77.8783V68.828H73.8103V67.988H78.7783ZM74.6503 67.292C74.6503 66.852 74.7223 66.48 74.8663 66.176C75.0103 65.872 75.2383 65.652 75.5503 65.516C75.8703 65.372 76.2943 65.32 76.8223 65.36V66.164C76.3423 66.124 76.0103 66.204 75.8263 66.404C75.6423 66.596 75.5503 66.892 75.5503 67.292V74H74.6503V67.292ZM80.842 68H81.67L81.718 68.852C81.91 68.556 82.162 68.328 82.474 68.168C82.786 68 83.15 67.916 83.566 67.916C84.022 67.916 84.422 68.016 84.766 68.216C85.11 68.408 85.378 68.7 85.57 69.092C85.762 69.476 85.858 69.96 85.858 70.544V74H84.958V70.652C84.958 70.028 84.822 69.556 84.55 69.236C84.286 68.908 83.902 68.744 83.398 68.744C82.878 68.744 82.47 68.916 82.174 69.26C81.886 69.604 81.742 70.112 81.742 70.784V74H80.842V68ZM90.1237 74.084C89.5637 74.084 89.0637 73.948 88.6237 73.676C88.1917 73.404 87.8517 73.032 87.6037 72.56C87.3557 72.088 87.2317 71.548 87.2317 70.94C87.2317 70.356 87.3557 69.836 87.6037 69.38C87.8517 68.924 88.1917 68.568 88.6237 68.312C89.0557 68.048 89.5477 67.916 90.0997 67.916C90.6437 67.916 91.1277 68.036 91.5517 68.276C91.9837 68.516 92.3197 68.848 92.5597 69.272C92.7997 69.696 92.9117 70.18 92.8957 70.724C92.8957 70.812 92.8917 70.904 92.8837 71C92.8757 71.096 92.8677 71.2 92.8597 71.312H88.2157C88.2317 71.688 88.3237 72.02 88.4917 72.308C88.6597 72.596 88.8797 72.824 89.1517 72.992C89.4317 73.152 89.7477 73.232 90.0997 73.232C90.5637 73.232 90.9557 73.144 91.2757 72.968C91.6037 72.792 91.8397 72.54 91.9837 72.212L92.7637 72.524C92.5237 73.028 92.1757 73.416 91.7197 73.688C91.2637 73.952 90.7317 74.084 90.1237 74.084ZM91.9117 70.532C91.9197 70.188 91.8437 69.884 91.6837 69.62C91.5317 69.356 91.3157 69.148 91.0357 68.996C90.7557 68.844 90.4317 68.768 90.0637 68.768C89.7437 68.768 89.4517 68.844 89.1877 68.996C88.9237 69.148 88.7037 69.36 88.5277 69.632C88.3597 69.896 88.2597 70.196 88.2277 70.532H91.9117Z" fill="black"/>
<path d="M58.9067 117.6H59.8667V126H58.9067V117.6ZM66.4427 121.212L66.3467 121.224V117.36H67.2467V126H66.4187L66.3587 124.884C66.1747 125.22 65.8987 125.504 65.5307 125.736C65.1707 125.968 64.7227 126.084 64.1867 126.084C63.6347 126.084 63.1507 125.96 62.7347 125.712C62.3267 125.456 62.0067 125.096 61.7747 124.632C61.5507 124.168 61.4387 123.624 61.4387 123C61.4387 122.376 61.5507 121.836 61.7747 121.38C62.0067 120.916 62.3267 120.556 62.7347 120.3C63.1507 120.044 63.6347 119.916 64.1867 119.916C64.7547 119.916 65.2267 120.04 65.6027 120.288C65.9787 120.536 66.2587 120.844 66.4427 121.212ZM62.4107 123C62.4107 123.688 62.5867 124.236 62.9387 124.644C63.2907 125.044 63.7707 125.244 64.3787 125.244C64.7547 125.244 65.0907 125.156 65.3867 124.98C65.6827 124.804 65.9147 124.548 66.0827 124.212C66.2587 123.876 66.3467 123.472 66.3467 123C66.3467 122.528 66.2587 122.128 66.0827 121.8C65.9147 121.464 65.6827 121.208 65.3867 121.032C65.0907 120.848 64.7547 120.756 64.3787 120.756C63.7787 120.756 63.2987 120.96 62.9387 121.368C62.5867 121.768 62.4107 122.312 62.4107 123ZM71.6081 126.084C71.0481 126.084 70.5481 125.948 70.1081 125.676C69.6761 125.404 69.3361 125.032 69.0881 124.56C68.8401 124.088 68.7161 123.548 68.7161 122.94C68.7161 122.356 68.8401 121.836 69.0881 121.38C69.3361 120.924 69.6761 120.568 70.1081 120.312C70.5401 120.048 71.0321 119.916 71.5841 119.916C72.1281 119.916 72.6121 120.036 73.0361 120.276C73.4681 120.516 73.8041 120.848 74.0441 121.272C74.2841 121.696 74.3961 122.18 74.3801 122.724C74.3801 122.812 74.3761 122.904 74.3681 123C74.3601 123.096 74.3521 123.2 74.3441 123.312H69.7001C69.7161 123.688 69.8081 124.02 69.9761 124.308C70.1441 124.596 70.3641 124.824 70.6361 124.992C70.9161 125.152 71.2321 125.232 71.5841 125.232C72.0481 125.232 72.4401 125.144 72.7601 124.968C73.0881 124.792 73.3241 124.54 73.4681 124.212L74.2481 124.524C74.0081 125.028 73.6601 125.416 73.2041 125.688C72.7481 125.952 72.2161 126.084 71.6081 126.084ZM73.3961 122.532C73.4041 122.188 73.3281 121.884 73.1681 121.62C73.0161 121.356 72.8001 121.148 72.5201 120.996C72.2401 120.844 71.9161 120.768 71.5481 120.768C71.2281 120.768 70.9361 120.844 70.6721 120.996C70.4081 121.148 70.1881 121.36 70.0121 121.632C69.8441 121.896 69.7441 122.196 69.7121 122.532H73.3961ZM79.6175 126L79.5455 124.92C79.3775 125.288 79.1295 125.576 78.8015 125.784C78.4735 125.984 78.0575 126.084 77.5535 126.084C77.1215 126.084 76.7535 126.016 76.4495 125.88C76.1455 125.744 75.9095 125.552 75.7415 125.304C75.5815 125.048 75.5015 124.748 75.5015 124.404C75.5015 123.9 75.6895 123.488 76.0655 123.168C76.4415 122.84 76.9855 122.64 77.6975 122.568L79.5455 122.364V121.884C79.5455 121.548 79.4215 121.28 79.1735 121.08C78.9255 120.872 78.5895 120.768 78.1655 120.768C77.7495 120.768 77.4015 120.864 77.1215 121.056C76.8495 121.248 76.6615 121.524 76.5575 121.884L75.7415 121.596C75.9015 121.068 76.1935 120.656 76.6175 120.36C77.0495 120.064 77.5735 119.916 78.1895 119.916C78.9015 119.916 79.4535 120.1 79.8455 120.468C80.2455 120.828 80.4455 121.32 80.4455 121.944V126H79.6175ZM79.5455 123.132L77.6855 123.348C77.2855 123.396 76.9815 123.508 76.7735 123.684C76.5655 123.852 76.4615 124.076 76.4615 124.356C76.4615 124.636 76.5615 124.86 76.7615 125.028C76.9695 125.196 77.2655 125.28 77.6495 125.28C78.0895 125.28 78.4495 125.192 78.7295 125.016C79.0095 124.84 79.2135 124.604 79.3415 124.308C79.4775 124.004 79.5455 123.676 79.5455 123.324V123.132ZM82.5853 120V118.32H83.4853V120H85.0813V120.84H83.4853V124.068C83.4853 124.436 83.5613 124.704 83.7133 124.872C83.8733 125.04 84.0733 125.14 84.3133 125.172C84.5613 125.204 84.8173 125.204 85.0813 125.172V125.952C84.7693 126.024 84.4613 126.044 84.1573 126.012C83.8613 125.98 83.5933 125.892 83.3533 125.748C83.1213 125.596 82.9333 125.384 82.7893 125.112C82.6533 124.84 82.5853 124.492 82.5853 124.068V120.84H81.6853V120H82.5853ZM88.9401 126.084C88.3801 126.084 87.8801 125.948 87.4401 125.676C87.0081 125.404 86.6681 125.032 86.4201 124.56C86.1721 124.088 86.0481 123.548 86.0481 122.94C86.0481 122.356 86.1721 121.836 86.4201 121.38C86.6681 120.924 87.0081 120.568 87.4401 120.312C87.8721 120.048 88.3641 119.916 88.9161 119.916C89.4601 119.916 89.9441 120.036 90.3681 120.276C90.8001 120.516 91.1361 120.848 91.3761 121.272C91.6161 121.696 91.7281 122.18 91.7121 122.724C91.7121 122.812 91.7081 122.904 91.7001 123C91.6921 123.096 91.6841 123.2 91.6761 123.312H87.0321C87.0481 123.688 87.1401 124.02 87.3081 124.308C87.4761 124.596 87.6961 124.824 87.9681 124.992C88.2481 125.152 88.5641 125.232 88.9161 125.232C89.3801 125.232 89.7721 125.144 90.0921 124.968C90.4201 124.792 90.6561 124.54 90.8001 124.212L91.5801 124.524C91.3401 125.028 90.9921 125.416 90.5361 125.688C90.0801 125.952 89.5481 126.084 88.9401 126.084ZM90.7281 122.532C90.7361 122.188 90.6601 121.884 90.5001 121.62C90.3481 121.356 90.1321 121.148 89.8521 120.996C89.5721 120.844 89.2481 120.768 88.8801 120.768C88.5601 120.768 88.2681 120.844 88.0041 120.996C87.7401 121.148 87.5201 121.36 87.3441 121.632C87.1761 121.896 87.0761 122.196 87.0441 122.532H90.7281Z" fill="black"/>
<path d="M41.6787 169.6C42.6067 169.6 43.3987 169.772 44.0547 170.116C44.7187 170.452 45.2267 170.936 45.5787 171.568C45.9387 172.2 46.1187 172.952 46.1187 173.824C46.1187 174.688 45.9387 175.432 45.5787 176.056C45.2267 176.68 44.7187 177.16 44.0547 177.496C43.3987 177.832 42.6067 178 41.6787 178H38.9067V169.6H41.6787ZM41.6787 177.16C42.8227 177.16 43.6867 176.868 44.2707 176.284C44.8547 175.7 45.1467 174.88 45.1467 173.824C45.1467 172.76 44.8547 171.932 44.2707 171.34C43.6867 170.74 42.8227 170.44 41.6787 170.44H39.8667V177.16H41.6787ZM50.0729 178.084C49.5129 178.084 49.0129 177.948 48.5729 177.676C48.1409 177.404 47.8009 177.032 47.5529 176.56C47.3049 176.088 47.1809 175.548 47.1809 174.94C47.1809 174.356 47.3049 173.836 47.5529 173.38C47.8009 172.924 48.1409 172.568 48.5729 172.312C49.0049 172.048 49.4969 171.916 50.0489 171.916C50.5929 171.916 51.0769 172.036 51.5009 172.276C51.9329 172.516 52.2689 172.848 52.5089 173.272C52.7489 173.696 52.8609 174.18 52.8449 174.724C52.8449 174.812 52.8409 174.904 52.8329 175C52.8249 175.096 52.8169 175.2 52.8089 175.312H48.1649C48.1809 175.688 48.2729 176.02 48.4409 176.308C48.6089 176.596 48.8289 176.824 49.1009 176.992C49.3809 177.152 49.6969 177.232 50.0489 177.232C50.5129 177.232 50.9049 177.144 51.2249 176.968C51.5529 176.792 51.7889 176.54 51.9329 176.212L52.7129 176.524C52.4729 177.028 52.1249 177.416 51.6689 177.688C51.2129 177.952 50.6809 178.084 50.0729 178.084ZM51.8609 174.532C51.8689 174.188 51.7929 173.884 51.6329 173.62C51.4809 173.356 51.2649 173.148 50.9849 172.996C50.7049 172.844 50.3809 172.768 50.0129 172.768C49.6929 172.768 49.4009 172.844 49.1369 172.996C48.8729 173.148 48.6529 173.36 48.4769 173.632C48.3089 173.896 48.2089 174.196 48.1769 174.532H51.8609ZM54.8183 176.164C54.8663 176.404 54.9543 176.604 55.0823 176.764C55.2103 176.916 55.3743 177.032 55.5743 177.112C55.7823 177.192 56.0223 177.232 56.2943 177.232C56.7183 177.232 57.0383 177.152 57.2543 176.992C57.4783 176.824 57.5903 176.616 57.5903 176.368C57.5903 176.16 57.5223 175.992 57.3863 175.864C57.2583 175.736 57.0863 175.632 56.8703 175.552C56.6543 175.464 56.4143 175.388 56.1503 175.324C55.9423 175.276 55.7183 175.22 55.4783 175.156C55.2383 175.084 55.0103 174.988 54.7943 174.868C54.5783 174.748 54.4023 174.592 54.2663 174.4C54.1303 174.208 54.0623 173.956 54.0623 173.644C54.0623 173.3 54.1543 173 54.3383 172.744C54.5303 172.48 54.7903 172.276 55.1183 172.132C55.4543 171.988 55.8383 171.916 56.2703 171.916C56.7663 171.916 57.2063 172.024 57.5903 172.24C57.9823 172.456 58.2543 172.792 58.4063 173.248L57.5663 173.536C57.5103 173.328 57.4063 173.168 57.2543 173.056C57.1103 172.944 56.9463 172.868 56.7623 172.828C56.5863 172.788 56.4103 172.768 56.2343 172.768C55.8743 172.768 55.5823 172.84 55.3583 172.984C55.1423 173.12 55.0343 173.328 55.0343 173.608C55.0343 173.76 55.0703 173.888 55.1423 173.992C55.2143 174.088 55.3143 174.168 55.4423 174.232C55.5703 174.296 55.7223 174.352 55.8983 174.4C56.0743 174.44 56.2663 174.488 56.4743 174.544C56.7063 174.6 56.9423 174.672 57.1823 174.76C57.4223 174.84 57.6463 174.948 57.8543 175.084C58.0623 175.212 58.2303 175.38 58.3583 175.588C58.4943 175.788 58.5623 176.04 58.5623 176.344C58.5623 176.696 58.4663 177.004 58.2743 177.268C58.0823 177.524 57.8143 177.724 57.4703 177.868C57.1343 178.012 56.7423 178.084 56.2943 178.084C55.6783 178.084 55.1663 177.948 54.7583 177.676C54.3583 177.396 54.0903 176.988 53.9543 176.452L54.8183 176.164ZM60.2017 172H61.0897V178H60.2017V172ZM60.6577 170.8C60.4737 170.8 60.3217 170.74 60.2017 170.62C60.0817 170.5 60.0217 170.352 60.0217 170.176C60.0217 169.992 60.0817 169.84 60.2017 169.72C60.3217 169.6 60.4737 169.54 60.6577 169.54C60.8257 169.54 60.9697 169.6 61.0897 169.72C61.2177 169.84 61.2817 169.992 61.2817 170.176C61.2817 170.352 61.2177 170.5 61.0897 170.62C60.9697 170.74 60.8257 170.8 60.6577 170.8ZM67.7234 172H68.5514V176.896C68.5514 177.632 68.3874 178.26 68.0594 178.78C67.7314 179.308 67.2554 179.708 66.6314 179.98C66.0074 180.26 65.2474 180.4 64.3514 180.4L64.2074 179.572C65.3354 179.556 66.1914 179.32 66.7754 178.864C67.3594 178.416 67.6514 177.76 67.6514 176.896V176.764L67.7474 176.788C67.5634 177.14 67.2874 177.444 66.9194 177.7C66.5514 177.948 66.0754 178.076 65.4914 178.084C64.9394 178.084 64.4554 177.96 64.0394 177.712C63.6314 177.456 63.3114 177.096 63.0794 176.632C62.8554 176.168 62.7434 175.624 62.7434 175C62.7434 174.376 62.8554 173.836 63.0794 173.38C63.3114 172.916 63.6314 172.556 64.0394 172.3C64.4554 172.044 64.9394 171.916 65.4914 171.916C65.8514 171.916 66.1714 171.972 66.4514 172.084C66.7314 172.188 66.9714 172.332 67.1714 172.516C67.3714 172.692 67.5354 172.892 67.6634 173.116L67.7234 172ZM63.7154 175C63.7154 175.688 63.8914 176.236 64.2434 176.644C64.6034 177.044 65.0874 177.244 65.6954 177.244C66.0634 177.244 66.3954 177.156 66.6914 176.98C66.9874 176.804 67.2194 176.548 67.3874 176.212C67.5634 175.876 67.6514 175.472 67.6514 175C67.6514 174.528 67.5634 174.128 67.3874 173.8C67.2194 173.464 66.9874 173.208 66.6914 173.032C66.3954 172.848 66.0634 172.756 65.6954 172.756C65.0954 172.756 64.6154 172.96 64.2554 173.368C63.8954 173.776 63.7154 174.32 63.7154 175ZM70.3928 172H71.2208L71.2688 172.852C71.4608 172.556 71.7128 172.328 72.0248 172.168C72.3368 172 72.7008 171.916 73.1168 171.916C73.5728 171.916 73.9728 172.016 74.3168 172.216C74.6608 172.408 74.9288 172.7 75.1208 173.092C75.3128 173.476 75.4088 173.96 75.4088 174.544V178H74.5088V174.652C74.5088 174.028 74.3728 173.556 74.1008 173.236C73.8368 172.908 73.4528 172.744 72.9488 172.744C72.4288 172.744 72.0208 172.916 71.7248 173.26C71.4368 173.604 71.2928 174.112 71.2928 174.784V178H70.3928V172ZM82.4618 168.4H83.4218L80.5298 179.2H79.5938L82.4618 168.4ZM90.7731 173.728C91.2211 173.728 91.5851 173.66 91.8651 173.524C92.1451 173.388 92.3491 173.196 92.4771 172.948C92.6131 172.7 92.6811 172.412 92.6811 172.084C92.6811 171.564 92.5291 171.16 92.2251 170.872C91.9291 170.584 91.4451 170.44 90.7731 170.44H88.7691V173.728H90.7731ZM93.6291 172.084C93.6291 172.412 93.5731 172.728 93.4611 173.032C93.3571 173.328 93.1891 173.592 92.9571 173.824C92.7251 174.056 92.4291 174.24 92.0691 174.376C91.7091 174.504 91.2771 174.568 90.7731 174.568H88.7691V178H87.8091V169.6H90.7731C91.4291 169.6 91.9651 169.712 92.3811 169.936C92.8051 170.16 93.1171 170.46 93.3171 170.836C93.5251 171.212 93.6291 171.628 93.6291 172.084ZM95.0607 172H95.8887L95.9367 172.876C96.0967 172.66 96.2887 172.476 96.5127 172.324C96.7447 172.172 96.9967 172.068 97.2687 172.012C97.5487 171.948 97.8447 171.944 98.1567 172V172.9C97.8207 172.836 97.5167 172.836 97.2447 172.9C96.9807 172.964 96.7527 173.084 96.5607 173.26C96.3687 173.436 96.2207 173.66 96.1167 173.932C96.0127 174.196 95.9607 174.504 95.9607 174.856V178H95.0607V172ZM101.977 178.084C101.409 178.084 100.901 177.96 100.453 177.712C100.005 177.464 99.6529 177.112 99.3969 176.656C99.1409 176.192 99.0129 175.644 99.0129 175.012C99.0129 174.372 99.1409 173.82 99.3969 173.356C99.6609 172.892 100.017 172.536 100.465 172.288C100.921 172.04 101.433 171.916 102.001 171.916C102.569 171.916 103.077 172.04 103.525 172.288C103.981 172.536 104.337 172.892 104.593 173.356C104.857 173.812 104.989 174.356 104.989 174.988C104.989 175.628 104.857 176.18 104.593 176.644C104.329 177.108 103.969 177.464 103.513 177.712C103.057 177.96 102.545 178.084 101.977 178.084ZM101.965 177.232C102.317 177.232 102.649 177.156 102.961 177.004C103.273 176.844 103.525 176.6 103.717 176.272C103.917 175.936 104.017 175.512 104.017 175C104.017 174.48 103.921 174.056 103.729 173.728C103.537 173.4 103.285 173.16 102.973 173.008C102.669 172.848 102.341 172.768 101.989 172.768C101.637 172.768 101.309 172.848 101.005 173.008C100.701 173.16 100.453 173.404 100.261 173.74C100.077 174.068 99.9849 174.488 99.9849 175C99.9849 175.52 100.077 175.944 100.261 176.272C100.445 176.6 100.685 176.844 100.981 177.004C101.285 177.156 101.613 177.232 101.965 177.232ZM106.847 172V170.32H107.747V172H109.343V172.84H107.747V176.068C107.747 176.436 107.823 176.704 107.975 176.872C108.135 177.04 108.335 177.14 108.575 177.172C108.823 177.204 109.079 177.204 109.343 177.172V177.952C109.031 178.024 108.723 178.044 108.419 178.012C108.123 177.98 107.855 177.892 107.615 177.748C107.383 177.596 107.195 177.384 107.051 177.112C106.915 176.84 106.847 176.492 106.847 176.068V172.84H105.947V172H106.847ZM113.274 178.084C112.706 178.084 112.198 177.96 111.75 177.712C111.302 177.464 110.95 177.112 110.694 176.656C110.438 176.192 110.31 175.644 110.31 175.012C110.31 174.372 110.438 173.82 110.694 173.356C110.958 172.892 111.314 172.536 111.762 172.288C112.218 172.04 112.73 171.916 113.298 171.916C113.866 171.916 114.374 172.04 114.822 172.288C115.278 172.536 115.634 172.892 115.89 173.356C116.154 173.812 116.286 174.356 116.286 174.988C116.286 175.628 116.154 176.18 115.89 176.644C115.626 177.108 115.266 177.464 114.81 177.712C114.354 177.96 113.842 178.084 113.274 178.084ZM113.262 177.232C113.614 177.232 113.946 177.156 114.258 177.004C114.57 176.844 114.822 176.6 115.014 176.272C115.214 175.936 115.314 175.512 115.314 175C115.314 174.48 115.218 174.056 115.026 173.728C114.834 173.4 114.582 173.16 114.27 173.008C113.966 172.848 113.638 172.768 113.286 172.768C112.934 172.768 112.606 172.848 112.302 173.008C111.998 173.16 111.75 173.404 111.558 173.74C111.374 174.068 111.282 174.488 111.282 175C111.282 175.52 111.374 175.944 111.558 176.272C111.742 176.6 111.982 176.844 112.278 177.004C112.582 177.156 112.91 177.232 113.262 177.232ZM118.144 172V170.32H119.044V172H120.64V172.84H119.044V176.068C119.044 176.436 119.12 176.704 119.272 176.872C119.432 177.04 119.632 177.14 119.872 177.172C120.12 177.204 120.376 177.204 120.64 177.172V177.952C120.328 178.024 120.02 178.044 119.716 178.012C119.42 177.98 119.152 177.892 118.912 177.748C118.68 177.596 118.492 177.384 118.348 177.112C118.212 176.84 118.144 176.492 118.144 176.068V172.84H117.244V172H118.144ZM126.047 172H126.983L123.551 180.4H122.687L123.707 177.916L121.283 172H122.267L124.187 176.848L126.047 172ZM128.935 176.788L129.031 176.776V180.4H128.131V172H128.959L129.019 173.116C129.203 172.78 129.475 172.496 129.835 172.264C130.195 172.032 130.647 171.916 131.191 171.916C131.711 171.916 132.179 172.044 132.595 172.3C133.011 172.548 133.339 172.904 133.579 173.368C133.819 173.824 133.939 174.368 133.939 175C133.939 175.624 133.823 176.168 133.591 176.632C133.367 177.088 133.047 177.444 132.631 177.7C132.223 177.956 131.743 178.084 131.191 178.084C130.615 178.084 130.139 177.96 129.763 177.712C129.387 177.464 129.111 177.156 128.935 176.788ZM132.967 175C132.967 174.312 132.787 173.768 132.427 173.368C132.075 172.96 131.599 172.756 130.999 172.756C130.623 172.756 130.283 172.844 129.979 173.02C129.683 173.196 129.451 173.452 129.283 173.788C129.115 174.124 129.031 174.528 129.031 175C129.031 175.464 129.115 175.864 129.283 176.2C129.451 176.536 129.683 176.796 129.979 176.98C130.283 177.156 130.623 177.244 130.999 177.244C131.599 177.244 132.075 177.044 132.427 176.644C132.787 176.236 132.967 175.688 132.967 175ZM137.928 178.084C137.368 178.084 136.868 177.948 136.428 177.676C135.996 177.404 135.656 177.032 135.408 176.56C135.16 176.088 135.036 175.548 135.036 174.94C135.036 174.356 135.16 173.836 135.408 173.38C135.656 172.924 135.996 172.568 136.428 172.312C136.86 172.048 137.352 171.916 137.904 171.916C138.448 171.916 138.932 172.036 139.356 172.276C139.788 172.516 140.124 172.848 140.364 173.272C140.604 173.696 140.716 174.18 140.7 174.724C140.7 174.812 140.696 174.904 140.688 175C140.68 175.096 140.672 175.2 140.664 175.312H136.02C136.036 175.688 136.128 176.02 136.296 176.308C136.464 176.596 136.684 176.824 136.956 176.992C137.236 177.152 137.552 177.232 137.904 177.232C138.368 177.232 138.76 177.144 139.08 176.968C139.408 176.792 139.644 176.54 139.788 176.212L140.568 176.524C140.328 177.028 139.98 177.416 139.524 177.688C139.068 177.952 138.536 178.084 137.928 178.084ZM139.716 174.532C139.724 174.188 139.648 173.884 139.488 173.62C139.336 173.356 139.12 173.148 138.84 172.996C138.56 172.844 138.236 172.768 137.868 172.768C137.548 172.768 137.256 172.844 136.992 172.996C136.728 173.148 136.508 173.36 136.332 173.632C136.164 173.896 136.064 174.196 136.032 174.532H139.716Z" fill="black"/>
<path d="M46.9067 279.6H47.8667V288H46.9067V279.6ZM49.8107 282H50.6387L50.6987 282.864C50.8747 282.576 51.1107 282.348 51.4067 282.18C51.7107 282.004 52.0707 281.916 52.4867 281.916C52.9107 281.916 53.2947 282.02 53.6387 282.228C53.9907 282.428 54.2627 282.728 54.4547 283.128C54.6387 282.72 54.9187 282.416 55.2947 282.216C55.6707 282.016 56.0867 281.916 56.5427 281.916C56.9907 281.916 57.3867 282.016 57.7307 282.216C58.0747 282.408 58.3427 282.7 58.5347 283.092C58.7267 283.476 58.8227 283.96 58.8227 284.544V288H57.9227V284.652C57.9227 284.028 57.7867 283.556 57.5147 283.236C57.2507 282.908 56.8707 282.744 56.3747 282.744C55.8707 282.744 55.4707 282.92 55.1747 283.272C54.8787 283.616 54.7307 284.128 54.7307 284.808V288H53.8307V284.652C53.8307 284.028 53.7027 283.556 53.4467 283.236C53.1907 282.908 52.8147 282.744 52.3187 282.744C51.8147 282.744 51.4187 282.92 51.1307 283.272C50.8507 283.616 50.7107 284.128 50.7107 284.808V288H49.8107V282ZM61.3725 286.788L61.4685 286.776V290.4H60.5685V282H61.3965L61.4565 283.116C61.6405 282.78 61.9125 282.496 62.2725 282.264C62.6325 282.032 63.0845 281.916 63.6285 281.916C64.1485 281.916 64.6165 282.044 65.0325 282.3C65.4485 282.548 65.7765 282.904 66.0165 283.368C66.2565 283.824 66.3765 284.368 66.3765 285C66.3765 285.624 66.2605 286.168 66.0285 286.632C65.8045 287.088 65.4845 287.444 65.0685 287.7C64.6605 287.956 64.1805 288.084 63.6285 288.084C63.0525 288.084 62.5765 287.96 62.2005 287.712C61.8245 287.464 61.5485 287.156 61.3725 286.788ZM65.4045 285C65.4045 284.312 65.2245 283.768 64.8645 283.368C64.5125 282.96 64.0365 282.756 63.4365 282.756C63.0605 282.756 62.7205 282.844 62.4165 283.02C62.1205 283.196 61.8885 283.452 61.7205 283.788C61.5525 284.124 61.4685 284.528 61.4685 285C61.4685 285.464 61.5525 285.864 61.7205 286.2C61.8885 286.536 62.1205 286.796 62.4165 286.98C62.7205 287.156 63.0605 287.244 63.4365 287.244C64.0365 287.244 64.5125 287.044 64.8645 286.644C65.2245 286.236 65.4045 285.688 65.4045 285ZM67.8459 279.36H68.7459V288H67.8459V279.36ZM73.0963 288.084C72.5363 288.084 72.0363 287.948 71.5963 287.676C71.1643 287.404 70.8243 287.032 70.5763 286.56C70.3283 286.088 70.2043 285.548 70.2043 284.94C70.2043 284.356 70.3283 283.836 70.5763 283.38C70.8243 282.924 71.1643 282.568 71.5963 282.312C72.0283 282.048 72.5203 281.916 73.0723 281.916C73.6163 281.916 74.1003 282.036 74.5243 282.276C74.9563 282.516 75.2923 282.848 75.5323 283.272C75.7723 283.696 75.8843 284.18 75.8683 284.724C75.8683 284.812 75.8643 284.904 75.8563 285C75.8483 285.096 75.8403 285.2 75.8323 285.312H71.1883C71.2043 285.688 71.2963 286.02 71.4643 286.308C71.6323 286.596 71.8523 286.824 72.1243 286.992C72.4043 287.152 72.7203 287.232 73.0723 287.232C73.5363 287.232 73.9283 287.144 74.2483 286.968C74.5763 286.792 74.8123 286.54 74.9563 286.212L75.7363 286.524C75.4963 287.028 75.1483 287.416 74.6923 287.688C74.2363 287.952 73.7043 288.084 73.0963 288.084ZM74.8843 284.532C74.8923 284.188 74.8163 283.884 74.6563 283.62C74.5043 283.356 74.2883 283.148 74.0083 282.996C73.7283 282.844 73.4043 282.768 73.0363 282.768C72.7163 282.768 72.4243 282.844 72.1603 282.996C71.8963 283.148 71.6763 283.36 71.5003 283.632C71.3323 283.896 71.2323 284.196 71.2003 284.532H74.8843ZM77.3498 282H78.1778L78.2378 282.864C78.4138 282.576 78.6498 282.348 78.9458 282.18C79.2498 282.004 79.6098 281.916 80.0258 281.916C80.4498 281.916 80.8338 282.02 81.1778 282.228C81.5298 282.428 81.8018 282.728 81.9938 283.128C82.1778 282.72 82.4578 282.416 82.8338 282.216C83.2098 282.016 83.6258 281.916 84.0818 281.916C84.5298 281.916 84.9258 282.016 85.2698 282.216C85.6138 282.408 85.8818 282.7 86.0738 283.092C86.2658 283.476 86.3618 283.96 86.3618 284.544V288H85.4618V284.652C85.4618 284.028 85.3258 283.556 85.0538 283.236C84.7898 282.908 84.4098 282.744 83.9138 282.744C83.4098 282.744 83.0098 282.92 82.7138 283.272C82.4178 283.616 82.2698 284.128 82.2698 284.808V288H81.3698V284.652C81.3698 284.028 81.2418 283.556 80.9858 283.236C80.7298 282.908 80.3538 282.744 79.8578 282.744C79.3538 282.744 78.9578 282.92 78.6698 283.272C78.3898 283.616 78.2498 284.128 78.2498 284.808V288H77.3498V282ZM90.6276 288.084C90.0676 288.084 89.5676 287.948 89.1276 287.676C88.6956 287.404 88.3556 287.032 88.1076 286.56C87.8596 286.088 87.7356 285.548 87.7356 284.94C87.7356 284.356 87.8596 283.836 88.1076 283.38C88.3556 282.924 88.6956 282.568 89.1276 282.312C89.5596 282.048 90.0516 281.916 90.6036 281.916C91.1476 281.916 91.6316 282.036 92.0556 282.276C92.4876 282.516 92.8236 282.848 93.0636 283.272C93.3036 283.696 93.4156 284.18 93.3996 284.724C93.3996 284.812 93.3956 284.904 93.3876 285C93.3796 285.096 93.3716 285.2 93.3636 285.312H88.7196C88.7356 285.688 88.8276 286.02 88.9956 286.308C89.1636 286.596 89.3836 286.824 89.6556 286.992C89.9356 287.152 90.2516 287.232 90.6036 287.232C91.0676 287.232 91.4596 287.144 91.7796 286.968C92.1076 286.792 92.3436 286.54 92.4876 286.212L93.2676 286.524C93.0276 287.028 92.6796 287.416 92.2236 287.688C91.7676 287.952 91.2356 288.084 90.6276 288.084ZM92.4156 284.532C92.4236 284.188 92.3476 283.884 92.1876 283.62C92.0356 283.356 91.8196 283.148 91.5396 282.996C91.2596 282.844 90.9356 282.768 90.5676 282.768C90.2476 282.768 89.9556 282.844 89.6916 282.996C89.4276 283.148 89.2076 283.36 89.0316 283.632C88.8636 283.896 88.7636 284.196 88.7316 284.532H92.4156ZM94.881 282H95.709L95.757 282.852C95.949 282.556 96.201 282.328 96.513 282.168C96.825 282 97.189 281.916 97.605 281.916C98.061 281.916 98.461 282.016 98.805 282.216C99.149 282.408 99.417 282.7 99.609 283.092C99.801 283.476 99.897 283.96 99.897 284.544V288H98.997V284.652C98.997 284.028 98.861 283.556 98.589 283.236C98.325 282.908 97.941 282.744 97.437 282.744C96.917 282.744 96.509 282.916 96.213 283.26C95.925 283.604 95.781 284.112 95.781 284.784V288H94.881V282ZM102.027 282V280.32H102.927V282H104.523V282.84H102.927V286.068C102.927 286.436 103.003 286.704 103.155 286.872C103.315 287.04 103.515 287.14 103.755 287.172C104.003 287.204 104.259 287.204 104.523 287.172V287.952C104.211 288.024 103.903 288.044 103.599 288.012C103.303 287.98 103.035 287.892 102.795 287.748C102.563 287.596 102.375 287.384 102.231 287.112C102.095 286.84 102.027 286.492 102.027 286.068V282.84H101.127V282H102.027Z" fill="black"/>
<path d="M41.4027 331.6H47.7027V332.44H45.0387V340H44.0787V332.44H41.4027V331.6ZM51.6549 340.084C51.0949 340.084 50.5949 339.948 50.1549 339.676C49.7229 339.404 49.3829 339.032 49.1349 338.56C48.8869 338.088 48.7629 337.548 48.7629 336.94C48.7629 336.356 48.8869 335.836 49.1349 335.38C49.3829 334.924 49.7229 334.568 50.1549 334.312C50.5869 334.048 51.0789 333.916 51.6309 333.916C52.1749 333.916 52.6589 334.036 53.0829 334.276C53.5149 334.516 53.8509 334.848 54.0909 335.272C54.3309 335.696 54.4429 336.18 54.4269 336.724C54.4269 336.812 54.4229 336.904 54.4149 337C54.4069 337.096 54.3989 337.2 54.3909 337.312H49.7469C49.7629 337.688 49.8549 338.02 50.0229 338.308C50.1909 338.596 50.4109 338.824 50.6829 338.992C50.9629 339.152 51.2789 339.232 51.6309 339.232C52.0949 339.232 52.4869 339.144 52.8069 338.968C53.1349 338.792 53.3709 338.54 53.5149 338.212L54.2949 338.524C54.0549 339.028 53.7069 339.416 53.2509 339.688C52.7949 339.952 52.2629 340.084 51.6549 340.084ZM53.4429 336.532C53.4509 336.188 53.3749 335.884 53.2149 335.62C53.0629 335.356 52.8469 335.148 52.5669 334.996C52.2869 334.844 51.9629 334.768 51.5949 334.768C51.2749 334.768 50.9829 334.844 50.7189 334.996C50.4549 335.148 50.2349 335.36 50.0589 335.632C49.8909 335.896 49.7909 336.196 49.7589 336.532H53.4429ZM56.4004 338.164C56.4484 338.404 56.5364 338.604 56.6644 338.764C56.7924 338.916 56.9564 339.032 57.1564 339.112C57.3644 339.192 57.6044 339.232 57.8764 339.232C58.3004 339.232 58.6204 339.152 58.8364 338.992C59.0604 338.824 59.1724 338.616 59.1724 338.368C59.1724 338.16 59.1044 337.992 58.9684 337.864C58.8404 337.736 58.6684 337.632 58.4524 337.552C58.2364 337.464 57.9964 337.388 57.7324 337.324C57.5244 337.276 57.3004 337.22 57.0604 337.156C56.8204 337.084 56.5924 336.988 56.3764 336.868C56.1604 336.748 55.9844 336.592 55.8484 336.4C55.7124 336.208 55.6444 335.956 55.6444 335.644C55.6444 335.3 55.7364 335 55.9204 334.744C56.1124 334.48 56.3724 334.276 56.7004 334.132C57.0364 333.988 57.4204 333.916 57.8524 333.916C58.3484 333.916 58.7884 334.024 59.1724 334.24C59.5644 334.456 59.8364 334.792 59.9884 335.248L59.1484 335.536C59.0924 335.328 58.9884 335.168 58.8364 335.056C58.6924 334.944 58.5284 334.868 58.3444 334.828C58.1684 334.788 57.9924 334.768 57.8164 334.768C57.4564 334.768 57.1644 334.84 56.9404 334.984C56.7244 335.12 56.6164 335.328 56.6164 335.608C56.6164 335.76 56.6524 335.888 56.7244 335.992C56.7964 336.088 56.8964 336.168 57.0244 336.232C57.1524 336.296 57.3044 336.352 57.4804 336.4C57.6564 336.44 57.8484 336.488 58.0564 336.544C58.2884 336.6 58.5244 336.672 58.7644 336.76C59.0044 336.84 59.2284 336.948 59.4364 337.084C59.6444 337.212 59.8124 337.38 59.9404 337.588C60.0764 337.788 60.1444 338.04 60.1444 338.344C60.1444 338.696 60.0484 339.004 59.8564 339.268C59.6644 339.524 59.3964 339.724 59.0524 339.868C58.7164 340.012 58.3244 340.084 57.8764 340.084C57.2604 340.084 56.7484 339.948 56.3404 339.676C55.9404 339.396 55.6724 338.988 55.5364 338.452L56.4004 338.164ZM61.9877 334V332.32H62.8877V334H64.4837V334.84H62.8877V338.068C62.8877 338.436 62.9637 338.704 63.1157 338.872C63.2757 339.04 63.4757 339.14 63.7157 339.172C63.9637 339.204 64.2197 339.204 64.4837 339.172V339.952C64.1717 340.024 63.8637 340.044 63.5597 340.012C63.2637 339.98 62.9957 339.892 62.7557 339.748C62.5237 339.596 62.3357 339.384 62.1917 339.112C62.0557 338.84 61.9877 338.492 61.9877 338.068V334.84H61.0877V334H61.9877ZM73.2297 332.86C73.0697 332.7 72.8697 332.58 72.6297 332.5C72.3977 332.412 72.1337 332.368 71.8377 332.368C71.2857 332.368 70.8737 332.512 70.6017 332.8C70.3377 333.088 70.2057 333.452 70.2057 333.892C70.2057 334.212 70.2857 334.476 70.4457 334.684C70.6137 334.892 70.8657 335.048 71.2017 335.152C71.5457 335.256 71.9777 335.308 72.4977 335.308H75.1017V336.148H72.5097C71.7097 336.148 71.0977 336.264 70.6737 336.496C70.2577 336.72 70.0497 337.124 70.0497 337.708C70.0497 338.012 70.1097 338.28 70.2297 338.512C70.3497 338.744 70.5377 338.924 70.7937 339.052C71.0497 339.172 71.3817 339.232 71.7897 339.232C72.4057 339.232 72.8417 339.084 73.0977 338.788C73.3537 338.492 73.4817 338.04 73.4817 337.432V335.896H74.4057V337.432C74.4057 338.064 74.3017 338.576 74.0937 338.968C73.8857 339.352 73.5857 339.636 73.1937 339.82C72.8017 339.996 72.3337 340.084 71.7897 340.084C71.1897 340.084 70.6857 339.988 70.2777 339.796C69.8777 339.596 69.5777 339.324 69.3777 338.98C69.1777 338.628 69.0777 338.232 69.0777 337.792C69.0777 337.392 69.1537 337.056 69.3057 336.784C69.4577 336.504 69.6657 336.28 69.9297 336.112C70.2017 335.936 70.5097 335.812 70.8537 335.74V335.68C70.5097 335.616 70.2177 335.492 69.9777 335.308C69.7377 335.124 69.5537 334.904 69.4257 334.648C69.2977 334.384 69.2337 334.1 69.2337 333.796C69.2337 333.38 69.3297 333 69.5217 332.656C69.7217 332.312 70.0137 332.036 70.3977 331.828C70.7817 331.62 71.2497 331.516 71.8017 331.516C72.2577 331.516 72.6697 331.588 73.0377 331.732C73.4137 331.868 73.7297 332.064 73.9857 332.32L73.2297 332.86ZM73.9857 332.32L73.2297 332.86L73.9857 332.32ZM73.0257 335.308C73.1297 335.308 73.2217 335.288 73.3017 335.248C73.3817 335.2 73.4417 335.136 73.4817 335.056C73.5217 334.976 73.5417 334.884 73.5417 334.78V333.832H74.4177V335.308H76.0257V336.148H74.4177V338.068C74.4177 338.46 74.5217 338.748 74.7297 338.932C74.9377 339.116 75.2137 339.208 75.5577 339.208C75.6297 339.208 75.7017 339.204 75.7737 339.196C75.8537 339.188 75.9377 339.18 76.0257 339.172V339.952C75.9217 339.976 75.8137 339.996 75.7017 340.012C75.5977 340.028 75.4977 340.036 75.4017 340.036C75.0657 340.036 74.7497 339.968 74.4537 339.832C74.1657 339.696 73.9297 339.484 73.7457 339.196C73.5617 338.9 73.4697 338.524 73.4697 338.068V336.148H72.5697V335.308H73.0257ZM82.0542 331.6V339.16H85.9782V340H81.0942V331.6H82.0542ZM89.7526 340.084C89.1926 340.084 88.6926 339.948 88.2526 339.676C87.8206 339.404 87.4806 339.032 87.2326 338.56C86.9846 338.088 86.8606 337.548 86.8606 336.94C86.8606 336.356 86.9846 335.836 87.2326 335.38C87.4806 334.924 87.8206 334.568 88.2526 334.312C88.6846 334.048 89.1766 333.916 89.7286 333.916C90.2726 333.916 90.7566 334.036 91.1806 334.276C91.6126 334.516 91.9486 334.848 92.1886 335.272C92.4286 335.696 92.5406 336.18 92.5246 336.724C92.5246 336.812 92.5206 336.904 92.5126 337C92.5046 337.096 92.4966 337.2 92.4886 337.312H87.8446C87.8606 337.688 87.9526 338.02 88.1206 338.308C88.2886 338.596 88.5086 338.824 88.7806 338.992C89.0606 339.152 89.3766 339.232 89.7286 339.232C90.1926 339.232 90.5846 339.144 90.9046 338.968C91.2326 338.792 91.4686 338.54 91.6126 338.212L92.3926 338.524C92.1526 339.028 91.8046 339.416 91.3486 339.688C90.8926 339.952 90.3606 340.084 89.7526 340.084ZM91.5406 336.532C91.5486 336.188 91.4726 335.884 91.3126 335.62C91.1606 335.356 90.9446 335.148 90.6646 334.996C90.3846 334.844 90.0606 334.768 89.6926 334.768C89.3726 334.768 89.0806 334.844 88.8166 334.996C88.5526 335.148 88.3326 335.36 88.1566 335.632C87.9886 335.896 87.8886 336.196 87.8566 336.532H91.5406ZM97.762 340L97.69 338.92C97.522 339.288 97.274 339.576 96.946 339.784C96.618 339.984 96.202 340.084 95.698 340.084C95.266 340.084 94.898 340.016 94.594 339.88C94.29 339.744 94.054 339.552 93.886 339.304C93.726 339.048 93.646 338.748 93.646 338.404C93.646 337.9 93.834 337.488 94.21 337.168C94.586 336.84 95.13 336.64 95.842 336.568L97.69 336.364V335.884C97.69 335.548 97.566 335.28 97.318 335.08C97.07 334.872 96.734 334.768 96.31 334.768C95.894 334.768 95.546 334.864 95.266 335.056C94.994 335.248 94.806 335.524 94.702 335.884L93.886 335.596C94.046 335.068 94.338 334.656 94.762 334.36C95.194 334.064 95.718 333.916 96.334 333.916C97.046 333.916 97.598 334.1 97.99 334.468C98.39 334.828 98.59 335.32 98.59 335.944V340H97.762ZM97.69 337.132L95.83 337.348C95.43 337.396 95.126 337.508 94.918 337.684C94.71 337.852 94.606 338.076 94.606 338.356C94.606 338.636 94.706 338.86 94.906 339.028C95.114 339.196 95.41 339.28 95.794 339.28C96.234 339.28 96.594 339.192 96.874 339.016C97.154 338.84 97.358 338.604 97.486 338.308C97.622 338.004 97.69 337.676 97.69 337.324V337.132ZM100.346 334H101.174L101.222 334.876C101.382 334.66 101.574 334.476 101.798 334.324C102.03 334.172 102.282 334.068 102.554 334.012C102.834 333.948 103.13 333.944 103.442 334V334.9C103.106 334.836 102.802 334.836 102.53 334.9C102.266 334.964 102.038 335.084 101.846 335.26C101.654 335.436 101.506 335.66 101.402 335.932C101.298 336.196 101.246 336.504 101.246 336.856V340H100.346V334ZM104.67 334H105.498L105.546 334.852C105.738 334.556 105.99 334.328 106.302 334.168C106.614 334 106.978 333.916 107.394 333.916C107.85 333.916 108.25 334.016 108.594 334.216C108.938 334.408 109.206 334.7 109.398 335.092C109.59 335.476 109.686 335.96 109.686 336.544V340H108.786V336.652C108.786 336.028 108.65 335.556 108.378 335.236C108.114 334.908 107.73 334.744 107.226 334.744C106.706 334.744 106.298 334.916 106.002 335.26C105.714 335.604 105.57 336.112 105.57 336.784V340H104.67V334Z" fill="black"/>
<path d="M146.755 227.084C146.755 226.58 146.607 226.18 146.311 225.884C146.015 225.588 145.531 225.44 144.859 225.44H142.867V228.728H144.871C145.311 228.728 145.667 228.66 145.939 228.524C146.219 228.388 146.423 228.196 146.551 227.948C146.687 227.7 146.755 227.412 146.755 227.084ZM144.859 224.6C145.515 224.6 146.051 224.712 146.467 224.936C146.891 225.16 147.207 225.46 147.415 225.836C147.623 226.204 147.727 226.62 147.727 227.084C147.727 227.412 147.671 227.724 147.559 228.02C147.455 228.316 147.287 228.58 147.055 228.812C146.823 229.044 146.527 229.228 146.167 229.364C145.807 229.5 145.375 229.568 144.871 229.568H142.867V233H141.907V224.6H144.859ZM145.555 229.208L147.883 233H146.791L144.523 229.208H145.555ZM151.831 233.084C151.271 233.084 150.771 232.948 150.331 232.676C149.899 232.404 149.559 232.032 149.311 231.56C149.063 231.088 148.939 230.548 148.939 229.94C148.939 229.356 149.063 228.836 149.311 228.38C149.559 227.924 149.899 227.568 150.331 227.312C150.763 227.048 151.255 226.916 151.807 226.916C152.351 226.916 152.835 227.036 153.259 227.276C153.691 227.516 154.027 227.848 154.267 228.272C154.507 228.696 154.619 229.18 154.603 229.724C154.603 229.812 154.599 229.904 154.591 230C154.583 230.096 154.575 230.2 154.567 230.312H149.923C149.939 230.688 150.031 231.02 150.199 231.308C150.367 231.596 150.587 231.824 150.859 231.992C151.139 232.152 151.455 232.232 151.807 232.232C152.271 232.232 152.663 232.144 152.983 231.968C153.311 231.792 153.547 231.54 153.691 231.212L154.471 231.524C154.231 232.028 153.883 232.416 153.427 232.688C152.971 232.952 152.439 233.084 151.831 233.084ZM153.619 229.532C153.627 229.188 153.551 228.884 153.391 228.62C153.239 228.356 153.023 228.148 152.743 227.996C152.463 227.844 152.139 227.768 151.771 227.768C151.451 227.768 151.159 227.844 150.895 227.996C150.631 228.148 150.411 228.36 150.235 228.632C150.067 228.896 149.967 229.196 149.935 229.532H153.619ZM156.432 227L158.328 231.992L160.236 227H161.184L158.784 233H157.848L155.472 227H156.432ZM162.592 227H163.48V233H162.592V227ZM163.048 225.8C162.864 225.8 162.712 225.74 162.592 225.62C162.472 225.5 162.412 225.352 162.412 225.176C162.412 224.992 162.472 224.84 162.592 224.72C162.712 224.6 162.864 224.54 163.048 224.54C163.216 224.54 163.36 224.6 163.48 224.72C163.608 224.84 163.672 224.992 163.672 225.176C163.672 225.352 163.608 225.5 163.48 225.62C163.36 225.74 163.216 225.8 163.048 225.8ZM168.026 233.084C167.466 233.084 166.966 232.948 166.526 232.676C166.094 232.404 165.754 232.032 165.506 231.56C165.258 231.088 165.134 230.548 165.134 229.94C165.134 229.356 165.258 228.836 165.506 228.38C165.754 227.924 166.094 227.568 166.526 227.312C166.958 227.048 167.45 226.916 168.002 226.916C168.546 226.916 169.03 227.036 169.454 227.276C169.886 227.516 170.222 227.848 170.462 228.272C170.702 228.696 170.814 229.18 170.798 229.724C170.798 229.812 170.794 229.904 170.786 230C170.778 230.096 170.77 230.2 170.762 230.312H166.118C166.134 230.688 166.226 231.02 166.394 231.308C166.562 231.596 166.782 231.824 167.054 231.992C167.334 232.152 167.65 232.232 168.002 232.232C168.466 232.232 168.858 232.144 169.178 231.968C169.506 231.792 169.742 231.54 169.886 231.212L170.666 231.524C170.426 232.028 170.078 232.416 169.622 232.688C169.166 232.952 168.634 233.084 168.026 233.084ZM169.814 229.532C169.822 229.188 169.746 228.884 169.586 228.62C169.434 228.356 169.218 228.148 168.938 227.996C168.658 227.844 168.334 227.768 167.966 227.768C167.646 227.768 167.354 227.844 167.09 227.996C166.826 228.148 166.606 228.36 166.43 228.632C166.262 228.896 166.162 229.196 166.13 229.532H169.814ZM174.367 233H173.551L171.667 227H172.579L173.959 231.884L175.507 227H176.323L177.847 231.872L179.215 227H180.103L178.231 233H177.403L175.891 228.344L174.367 233Z" fill="black"/>
</svg>
