<svg width="1096" height="233" viewBox="0 0 1096 233" fill="none" xmlns="http://www.w3.org/2000/svg">
<path d="M799.377 159.33L791.877 155L791.877 163.66L799.377 159.33ZM676.705 159.33L676.705 160.08L679.772 160.08L679.772 159.33L679.772 158.58L676.705 158.58L676.705 159.33ZM685.905 159.33L685.905 160.08L692.039 160.08L692.039 159.33L692.039 158.58L685.905 158.58L685.905 159.33ZM698.173 159.33L698.173 160.08L704.306 160.08L704.306 159.33L704.306 158.58L698.173 158.58L698.173 159.33ZM710.44 159.33L710.44 160.08L716.573 160.08L716.573 159.33L716.573 158.58L710.44 158.58L710.44 159.33ZM722.707 159.33L722.707 160.08L728.84 160.08L728.84 159.33L728.84 158.58L722.707 158.58L722.707 159.33ZM734.974 159.33L734.974 160.08L741.108 160.08L741.108 159.33L741.108 158.58L734.974 158.58L734.974 159.33ZM747.241 159.33L747.241 160.08L753.375 160.08L753.375 159.33L753.375 158.58L747.241 158.58L747.241 159.33ZM759.508 159.33L759.508 160.08L765.642 160.08L765.642 159.33L765.642 158.58L759.508 158.58L759.508 159.33ZM771.776 159.33L771.776 160.08L777.909 160.08L777.909 159.33L777.909 158.58L771.776 158.58L771.776 159.33ZM784.043 159.33L784.043 160.08L790.176 160.08L790.176 159.33L790.176 158.58L784.043 158.58L784.043 159.33Z" fill="black"/>
<path d="M162.892 159.33L155.392 155L155.392 163.66L162.892 159.33ZM132.727 159.33L132.727 160.08L135.24 160.08L135.24 159.33L135.24 158.58L132.727 158.58L132.727 159.33ZM140.268 159.33L140.268 160.08L145.295 160.08L145.295 159.33L145.295 158.58L140.268 158.58L140.268 159.33ZM150.323 159.33L150.323 160.08L155.35 160.08L155.35 159.33L155.35 158.58L150.323 158.58L150.323 159.33Z" fill="black"/>
<path d="M328.8 159.33L321.3 155L321.3 163.66L328.8 159.33ZM298.635 159.33L298.635 160.08L301.149 160.08L301.149 159.33L301.149 158.58L298.635 158.58L298.635 159.33ZM306.176 159.33L306.176 160.08L311.204 160.08L311.204 159.33L311.204 158.58L306.176 158.58L306.176 159.33ZM316.231 159.33L316.231 160.08L321.259 160.08L321.259 159.33L321.259 158.58L316.231 158.58L316.231 159.33Z" fill="black"/>
<path d="M496.72 159.33L489.22 155L489.22 163.66L496.72 159.33ZM466.555 159.33L466.555 160.08L469.068 160.08L469.068 159.33L469.068 158.58L466.555 158.58L466.555 159.33ZM474.096 159.33L474.096 160.08L479.123 160.08L479.123 159.33L479.123 158.58L474.096 158.58L474.096 159.33ZM484.151 159.33L484.151 160.08L489.179 160.08L489.179 159.33L489.179 158.58L484.151 158.58L484.151 159.33Z" fill="black"/>
<path d="M964.278 159.33L956.778 155L956.778 163.66L964.278 159.33ZM934.113 159.33L934.113 160.08L936.627 160.08L936.627 159.33L936.627 158.58L934.113 158.58L934.113 159.33ZM941.655 159.33L941.655 160.08L946.682 160.08L946.682 159.33L946.682 158.58L941.655 158.58L941.655 159.33ZM951.71 159.33L951.71 160.08L956.737 160.08L956.737 159.33L956.737 158.58L951.71 158.58L951.71 159.33Z" fill="black"/>
<path d="M1032 228.33H1032.75C1032.75 228.744 1032.41 229.08 1032 229.08V228.33ZM815.746 228.33L823.246 224V232.66L815.746 228.33ZM827.331 228.33V227.58H835.054V228.33V229.08H827.331V228.33ZM842.778 228.33V227.58H850.501V228.33V229.08H842.778V228.33ZM858.224 228.33V227.58H865.948V228.33V229.08H858.224V228.33ZM873.671 228.33V227.58H881.394V228.33V229.08H873.671V228.33ZM889.118 228.33V227.58H896.841V228.33V229.08H889.118V228.33ZM904.564 228.33V227.58H912.288V228.33V229.08H904.564V228.33ZM920.011 228.33V227.58H927.734V228.33V229.08H920.011V228.33ZM935.458 228.33V227.58H943.181V228.33V229.08H935.458V228.33ZM950.904 228.33V227.58H958.627V228.33V229.08H950.904V228.33ZM966.351 228.33V227.58H974.074V228.33V229.08H966.351V228.33ZM981.797 228.33V227.58H989.521V228.33V229.08H981.797V228.33ZM997.244 228.33V227.58H1004.97V228.33V229.08H997.244V228.33ZM1012.69 228.33V227.58H1020.41V228.33V229.08H1012.69V228.33ZM1028.14 228.33V227.58H1032V228.33V229.08H1028.14V228.33ZM1032 228.33H1031.25V224.018H1032H1032.75V228.33H1032ZM1032 215.393H1031.25V206.768H1032H1032.75V215.393H1032ZM1032 198.143H1031.25V189.518H1032H1032.75V198.143H1032ZM1032 180.893H1031.25V172.268H1032H1032.75V180.893H1032ZM1032 163.643H1031.25V159.33H1032H1032.75V163.643H1032Z" fill="black"/>
<path d="M507.895 228.33L515.395 224V232.66L507.895 228.33ZM519.674 228.33V227.58H527.527V228.33V229.08H519.674V228.33ZM535.38 228.33V227.58H543.233V228.33V229.08H535.38V228.33ZM551.085 228.33V227.58H558.938V228.33V229.08H551.085V228.33ZM566.791 228.33V227.58H574.644V228.33V229.08H566.791V228.33ZM582.497 228.33V227.58H590.35V228.33V229.08H582.497V228.33ZM598.203 228.33V227.58H606.056V228.33V229.08H598.203V228.33ZM613.909 228.33V227.58H621.762V228.33V229.08H613.909V228.33ZM629.614 228.33V227.58H637.467V228.33V229.08H629.614V228.33ZM645.32 228.33V227.58H653.173V228.33V229.08H645.32V228.33ZM661.026 228.33V227.58H668.879V228.33V229.08H661.026V228.33ZM676.732 228.33V227.58H684.585V228.33V229.08H676.732V228.33ZM692.438 228.33V227.58H700.29V228.33V229.08H692.438V228.33ZM708.143 228.33V227.58H715.996V228.33V229.08H708.143V228.33ZM723.849 228.33V227.58H731.702V228.33V229.08H723.849V228.33ZM739.555 228.33V227.58H747.408V228.33V229.08H739.555V228.33ZM755.261 228.33V227.58H763.114V228.33V229.08H755.261V228.33ZM770.966 228.33V227.58H778.819V228.33V229.08H770.966V228.33ZM786.672 228.33V227.58H794.525V228.33V229.08H786.672V228.33ZM802.378 228.33V227.58H806.305V228.33V229.08H802.378V228.33Z" fill="black"/>
<path d="M201.93 228.33L209.43 224V232.66L201.93 228.33ZM213.709 228.33V227.58H221.562V228.33V229.08H213.709V228.33ZM229.415 228.33V227.58H237.268V228.33V229.08H229.415V228.33ZM245.121 228.33V227.58H252.974V228.33V229.08H245.121V228.33ZM260.826 228.33V227.58H268.679V228.33V229.08H260.826V228.33ZM276.532 228.33V227.58H284.385V228.33V229.08H276.532V228.33ZM292.238 228.33V227.58H300.091V228.33V229.08H292.238V228.33ZM307.944 228.33V227.58H315.797V228.33V229.08H307.944V228.33ZM323.65 228.33V227.58H331.502V228.33V229.08H323.65V228.33ZM339.355 228.33V227.58H347.208V228.33V229.08H339.355V228.33ZM355.061 228.33V227.58H362.914V228.33V229.08H355.061V228.33ZM370.767 228.33V227.58H378.62V228.33V229.08H370.767V228.33ZM386.473 228.33V227.58H394.326V228.33V229.08H386.473V228.33ZM402.178 228.33V227.58H410.031V228.33V229.08H402.178V228.33ZM417.884 228.33V227.58H425.737V228.33V229.08H417.884V228.33ZM433.59 228.33V227.58H441.443V228.33V229.08H433.59V228.33ZM449.296 228.33V227.58H457.149V228.33V229.08H449.296V228.33ZM465.002 228.33V227.58H472.855V228.33V229.08H465.002V228.33ZM480.707 228.33V227.58H488.56V228.33V229.08H480.707V228.33ZM496.413 228.33V227.58H500.34V228.33V229.08H496.413V228.33Z" fill="black"/>
<path d="M187.764 228.33H65V160.53" stroke="black" stroke-width="1.5" stroke-linejoin="round" stroke-dasharray="8 8"/>
<path d="M565.918 141.33V4.33008H765.352" stroke="black" stroke-width="1.5" stroke-linejoin="round" stroke-dasharray="8 8"/>
<path d="M1032 4.33008H1032.75C1032.75 3.91586 1032.41 3.58008 1032 3.58008V4.33008ZM773.064 4.33008L780.564 8.66021V-4.91142e-05L773.064 4.33008ZM785.202 4.33008V5.08008H793.294V4.33008V3.58008H785.202V4.33008ZM801.385 4.33008V5.08008H809.477V4.33008V3.58008H801.385V4.33008ZM817.569 4.33008V5.08008H825.66V4.33008V3.58008H817.569V4.33008ZM833.752 4.33008V5.08008H841.844V4.33008V3.58008H833.752V4.33008ZM849.935 4.33008V5.08008H858.027V4.33008V3.58008H849.935V4.33008ZM866.119 4.33008V5.08008H874.21V4.33008V3.58008H866.119V4.33008ZM882.302 4.33008V5.08008H890.394V4.33008V3.58008H882.302V4.33008ZM898.485 4.33008V5.08008H906.577V4.33008V3.58008H898.485V4.33008ZM914.669 4.33008V5.08008H922.76V4.33008V3.58008H914.669V4.33008ZM930.852 4.33008V5.08008H938.944V4.33008V3.58008H930.852V4.33008ZM947.036 4.33008V5.08008H955.127V4.33008V3.58008H947.036V4.33008ZM963.219 4.33008V5.08008H971.311V4.33008V3.58008H963.219V4.33008ZM979.402 4.33008V5.08008H987.494V4.33008V3.58008H979.402V4.33008ZM995.586 4.33008V5.08008H1003.68V4.33008V3.58008H995.586V4.33008ZM1011.77 4.33008V5.08008H1019.86V4.33008V3.58008H1011.77V4.33008ZM1027.95 4.33008V5.08008H1032V4.33008V3.58008H1027.95V4.33008ZM1032 4.33008H1031.25V8.37991H1032H1032.75V4.33008H1032ZM1032 16.4796H1031.25V24.5792H1032H1032.75V16.4796H1032ZM1032 32.6789H1031.25V40.7786H1032H1032.75V32.6789H1032ZM1032 48.8782H1031.25V56.9779H1032H1032.75V48.8782H1032ZM1032 65.0775H1031.25V73.1772H1032H1032.75V65.0775H1032ZM1032 81.2769H1031.25V89.3765H1032H1032.75V81.2769H1032ZM1032 97.4762H1031.25V105.576H1032H1032.75V97.4762H1032ZM1032 113.676H1031.25V121.775H1032H1032.75V113.676H1032ZM1032 129.875H1031.25V133.925H1032H1032.75V129.875H1032Z" fill="black"/>
<path d="M716.925 63.331L717.675 63.331C717.675 62.9168 717.339 62.581 716.925 62.581L716.925 63.331ZM620.396 63.331L620.396 62.581C619.982 62.581 619.646 62.9168 619.646 63.331L620.396 63.331ZM620.396 123.521L624.727 116.021L616.066 116.021L620.396 123.521ZM620.396 112.236L621.146 112.236L621.146 104.712L620.396 104.712L619.646 104.712L619.646 112.236L620.396 112.236ZM620.396 97.1882L621.146 97.1882L621.146 89.6643L620.396 89.6643L619.646 89.6643L619.646 97.1882L620.396 97.1882ZM620.396 82.1405L621.146 82.1405L621.146 74.6167L620.396 74.6167L619.646 74.6167L619.646 82.1405L620.396 82.1405ZM620.396 67.0929L621.146 67.0929L621.146 63.331L620.396 63.331L619.646 63.331L619.646 67.0929L620.396 67.0929ZM620.396 63.331L620.396 64.081L624.419 64.081L624.419 63.331L624.419 62.581L620.396 62.581L620.396 63.331ZM632.463 63.331L632.463 64.081L640.507 64.081L640.507 63.331L640.507 62.581L632.463 62.581L632.463 63.331ZM648.551 63.331L648.551 64.081L656.595 64.081L656.595 63.331L656.595 62.581L648.551 62.581L648.551 63.331ZM664.639 63.331L664.639 64.081L672.683 64.081L672.683 63.331L672.683 62.581L664.639 62.581L664.639 63.331ZM680.727 63.331L680.727 64.081L688.771 64.081L688.771 63.331L688.771 62.581L680.727 62.581L680.727 63.331ZM696.815 63.331L696.815 64.081L704.859 64.081L704.859 63.331L704.859 62.581L696.815 62.581L696.815 63.331ZM712.903 63.331L712.903 64.081L716.925 64.081L716.925 63.331L716.925 62.581L712.903 62.581L712.903 63.331ZM716.925 63.331L716.175 63.331L716.175 67.9669L716.925 67.9669L717.675 67.9669L717.675 63.331L716.925 63.331ZM716.925 77.2387L716.175 77.2387L716.175 86.5104L716.925 86.5104L717.675 86.5104L717.675 77.2387L716.925 77.2387ZM716.925 95.7822L716.175 95.7822L716.175 100.418L716.925 100.418L717.675 100.418L717.675 95.7822L716.925 95.7822Z" fill="black"/>
<path d="M620.396 159.33L619.646 159.33C619.646 159.744 619.982 160.08 620.396 160.08L620.396 159.33ZM716.925 159.33L716.925 160.08C717.124 160.08 717.315 160.001 717.455 159.86C717.596 159.72 717.675 159.529 717.675 159.33L716.925 159.33ZM716.925 104.83L712.595 112.33L721.255 112.33L716.925 104.83ZM620.396 125.83L619.646 125.83L619.646 130.018L620.396 130.018L621.146 130.018L621.146 125.83L620.396 125.83ZM620.396 138.393L619.646 138.393L619.646 146.768L620.396 146.768L621.146 146.768L621.146 138.393L620.396 138.393ZM620.396 155.143L619.646 155.143L619.646 159.33L620.396 159.33L621.146 159.33L621.146 155.143L620.396 155.143ZM620.396 159.33L620.396 160.08L624.419 160.08L624.419 159.33L624.419 158.58L620.396 158.58L620.396 159.33ZM632.463 159.33L632.463 160.08L640.507 160.08L640.507 159.33L640.507 158.58L632.463 158.58L632.463 159.33ZM648.551 159.33L648.551 160.08L656.595 160.08L656.595 159.33L656.595 158.58L648.551 158.58L648.551 159.33ZM664.639 159.33L664.639 160.08L672.683 160.08L672.683 159.33L672.683 158.58L664.639 158.58L664.639 159.33ZM680.727 159.33L680.727 160.08L688.771 160.08L688.771 159.33L688.771 158.58L680.727 158.58L680.727 159.33ZM696.815 159.33L696.815 160.08L704.859 160.08L704.859 159.33L704.859 158.58L696.815 158.58L696.815 159.33ZM712.903 159.33L712.903 160.08L716.925 160.08L716.925 159.33L716.925 158.58L712.903 158.58L712.903 159.33ZM716.925 159.33L717.675 159.33L717.675 154.788L716.925 154.788L716.175 154.788L716.175 159.33L716.925 159.33ZM716.925 145.705L717.675 145.705L717.675 136.622L716.925 136.622L716.175 136.622L716.175 145.705L716.925 145.705ZM716.925 127.538L717.675 127.538L717.675 118.455L716.925 118.455L716.175 118.455L716.175 127.538L716.925 127.538Z" fill="black"/>
<rect y="134.33" width="130.716" height="50" fill="#A18CBB"/>
<rect x="165.908" y="134.33" width="130.716" height="50" fill="#A18CBB"/>
<rect x="331.816" y="134.33" width="130.716" height="50" fill="#A18CBB"/>
<rect x="799.375" y="134.33" width="130.716" height="50" fill="#A18CBB"/>
<rect x="965.285" y="134.33" width="130.716" height="50" fill="#A18CBB"/>
<rect x="497.725" y="134.33" width="174.958" height="50" fill="#A18CBB"/>
<rect x="660.617" y="38.3301" width="130.716" height="50" fill="#A18CBB"/>
<path d="M34.8946 155.474H29.0066V158.978H33.4226V160.322H29.0066V163.986H34.8946V165.33H27.4066V154.13H34.8946V155.474ZM36.9977 157.33H38.3737L38.4697 158.258C38.7257 157.938 39.0457 157.687 39.4297 157.506C39.8137 157.314 40.2457 157.218 40.7257 157.218C41.2697 157.218 41.7604 157.341 42.1977 157.586C42.6457 157.821 42.9977 158.173 43.2537 158.642C43.5204 158.173 43.899 157.821 44.3897 157.586C44.8804 157.341 45.419 157.218 46.0057 157.218C46.6137 157.218 47.147 157.351 47.6057 157.618C48.075 157.874 48.4377 158.258 48.6937 158.77C48.9497 159.282 49.0777 159.922 49.0777 160.69V165.33H47.5577V160.882C47.5577 160.135 47.3977 159.57 47.0777 159.186C46.7577 158.791 46.299 158.594 45.7017 158.594C45.0937 158.594 44.6137 158.797 44.2617 159.202C43.9097 159.607 43.7337 160.199 43.7337 160.978V165.33H42.2137V160.882C42.2137 160.135 42.0644 159.57 41.7657 159.186C41.467 158.791 41.019 158.594 40.4217 158.594C39.8137 158.594 39.339 158.797 38.9977 159.202C38.667 159.607 38.5017 160.199 38.5017 160.978V165.33H36.9977V157.33ZM52.5761 163.97L52.7361 163.922V168.53H51.2321V157.33H52.6081L52.7201 158.53C52.9761 158.167 53.3281 157.858 53.7761 157.602C54.2347 157.346 54.7894 157.218 55.4401 157.218C56.1441 157.218 56.7681 157.389 57.3121 157.73C57.8561 158.071 58.2827 158.551 58.5921 159.17C58.9121 159.778 59.0721 160.498 59.0721 161.33C59.0721 162.151 58.9174 162.871 58.6081 163.49C58.3094 164.109 57.8881 164.589 57.3441 164.93C56.8001 165.271 56.1654 165.442 55.4401 165.442C54.7467 165.442 54.1547 165.303 53.6641 165.026C53.1841 164.738 52.8214 164.386 52.5761 163.97ZM57.4401 161.33C57.4401 160.509 57.2214 159.847 56.7841 159.346C56.3574 158.845 55.7974 158.594 55.1041 158.594C54.6561 158.594 54.2561 158.701 53.9041 158.914C53.5521 159.127 53.2694 159.437 53.0561 159.842C52.8427 160.247 52.7361 160.743 52.7361 161.33C52.7361 161.906 52.8427 162.397 53.0561 162.802C53.2694 163.207 53.5521 163.522 53.9041 163.746C54.2561 163.959 54.6561 164.066 55.1041 164.066C55.7974 164.066 56.3574 163.815 56.7841 163.314C57.2214 162.813 57.4401 162.151 57.4401 161.33ZM65.7683 165.33L65.6403 164.162C65.395 164.567 65.075 164.882 64.6803 165.106C64.2963 165.319 63.795 165.426 63.1763 165.426C62.6003 165.426 62.1097 165.335 61.7043 165.154C61.299 164.962 60.9843 164.701 60.7603 164.37C60.547 164.029 60.4403 163.634 60.4403 163.186C60.4403 162.514 60.691 161.959 61.1923 161.522C61.6937 161.074 62.419 160.797 63.3683 160.69L65.6403 160.434V159.81C65.6403 159.469 65.5017 159.181 65.2243 158.946C64.947 158.701 64.547 158.578 64.0243 158.578C63.5337 158.578 63.1177 158.695 62.7763 158.93C62.435 159.154 62.2057 159.49 62.0883 159.938L60.7443 159.458C60.947 158.754 61.3417 158.205 61.9283 157.81C62.5257 157.415 63.2457 157.218 64.0883 157.218C65.091 157.218 65.8537 157.469 66.3763 157.97C66.899 158.471 67.1603 159.133 67.1603 159.954V165.33H65.7683ZM65.6403 161.666L63.4483 161.938C62.979 162.002 62.627 162.135 62.3923 162.338C62.1577 162.53 62.0403 162.786 62.0403 163.106C62.0403 163.405 62.1523 163.655 62.3763 163.858C62.611 164.05 62.9363 164.146 63.3523 164.146C63.8643 164.146 64.291 164.05 64.6323 163.858C64.9737 163.666 65.2243 163.399 65.3843 163.058C65.555 162.706 65.6403 162.301 65.6403 161.842V161.666ZM69.8378 157.33V155.09H71.3578V157.33H73.3578V158.674H71.3578V162.61C71.3578 163.101 71.4538 163.447 71.6458 163.65C71.8485 163.853 72.0992 163.97 72.3978 164.002C72.7072 164.023 73.0272 164.013 73.3578 163.97V165.266C72.9205 165.362 72.4885 165.389 72.0618 165.346C71.6458 165.314 71.2672 165.197 70.9258 164.994C70.5952 164.791 70.3285 164.498 70.1258 164.114C69.9338 163.719 69.8378 163.218 69.8378 162.61V158.674H68.6858V157.33H69.8378ZM75.0446 153.81H76.5486V158.21C76.8046 157.901 77.1352 157.661 77.5406 157.49C77.9459 157.309 78.3939 157.218 78.8846 157.218C79.4819 157.218 80.0046 157.351 80.4526 157.618C80.9112 157.874 81.2686 158.263 81.5246 158.786C81.7806 159.298 81.9086 159.938 81.9086 160.706V165.33H80.3246V160.898C80.3246 160.151 80.1699 159.581 79.8606 159.186C79.5512 158.791 79.0979 158.594 78.5006 158.594C77.8819 158.594 77.4019 158.797 77.0606 159.202C76.7192 159.607 76.5486 160.199 76.5486 160.978V165.33H75.0446V153.81ZM84.3315 157.33H85.8515V165.33H84.3315V157.33ZM85.0995 155.922C84.8115 155.922 84.5715 155.826 84.3795 155.634C84.1875 155.442 84.0915 155.207 84.0915 154.93C84.0915 154.642 84.1875 154.402 84.3795 154.21C84.5715 154.007 84.8115 153.906 85.0995 153.906C85.3768 153.906 85.6115 154.007 85.8035 154.21C86.0061 154.402 86.1075 154.642 86.1075 154.93C86.1075 155.207 86.0061 155.442 85.8035 155.634C85.6115 155.826 85.3768 155.922 85.0995 155.922ZM89.2687 162.802C89.3434 163.122 89.4714 163.373 89.6527 163.554C89.834 163.735 90.0474 163.869 90.2927 163.954C90.5487 164.029 90.8154 164.066 91.0927 164.066C91.5727 164.066 91.946 163.97 92.2127 163.778C92.4794 163.586 92.6127 163.346 92.6127 163.058C92.6127 162.813 92.5274 162.621 92.3567 162.482C92.1967 162.333 91.978 162.215 91.7007 162.13C91.434 162.045 91.146 161.965 90.8367 161.89C90.5594 161.815 90.2554 161.73 89.9247 161.634C89.6047 161.538 89.3007 161.41 89.0127 161.25C88.7354 161.079 88.506 160.866 88.3247 160.61C88.1434 160.343 88.0527 160.007 88.0527 159.602C88.0527 159.122 88.1807 158.706 88.4367 158.354C88.7034 157.991 89.066 157.714 89.5247 157.522C89.994 157.319 90.522 157.218 91.1087 157.218C91.7914 157.218 92.3887 157.367 92.9007 157.666C93.4234 157.954 93.802 158.391 94.0367 158.978L92.6767 159.426C92.602 159.223 92.4794 159.058 92.3087 158.93C92.138 158.802 91.9407 158.717 91.7167 158.674C91.5034 158.621 91.29 158.594 91.0767 158.594C90.6714 158.594 90.3354 158.674 90.0687 158.834C89.802 158.994 89.6687 159.229 89.6687 159.538C89.6687 159.709 89.7114 159.853 89.7967 159.97C89.882 160.077 89.9994 160.167 90.1487 160.242C90.3087 160.306 90.4954 160.365 90.7087 160.418C90.922 160.471 91.1514 160.53 91.3967 160.594C91.7167 160.69 92.042 160.797 92.3727 160.914C92.7034 161.021 93.0074 161.159 93.2847 161.33C93.562 161.501 93.786 161.725 93.9567 162.002C94.1274 162.279 94.218 162.621 94.2287 163.026C94.2287 163.495 94.0954 163.911 93.8287 164.274C93.5727 164.637 93.2047 164.925 92.7247 165.138C92.2554 165.341 91.6954 165.442 91.0447 165.442C90.2554 165.442 89.5834 165.266 89.0287 164.914C88.474 164.562 88.1007 164.018 87.9087 163.282L89.2687 162.802ZM99.5322 165.442C98.7642 165.442 98.0815 165.266 97.4842 164.914C96.8975 164.551 96.4335 164.055 96.0922 163.426C95.7615 162.797 95.5962 162.077 95.5962 161.266C95.5962 160.487 95.7615 159.794 96.0922 159.186C96.4229 158.578 96.8762 158.098 97.4522 157.746C98.0389 157.394 98.7002 157.218 99.4362 157.218C100.183 157.218 100.844 157.383 101.42 157.714C101.996 158.034 102.444 158.487 102.764 159.074C103.084 159.65 103.239 160.317 103.228 161.074C103.228 161.202 103.223 161.335 103.212 161.474C103.202 161.602 103.186 161.746 103.164 161.906H97.2442C97.2762 162.333 97.3935 162.711 97.5962 163.042C97.8095 163.362 98.0762 163.613 98.3962 163.794C98.7269 163.975 99.1002 164.066 99.5162 164.066C100.05 164.066 100.514 163.965 100.908 163.762C101.303 163.549 101.58 163.266 101.74 162.914L103.052 163.378C102.732 164.029 102.263 164.535 101.644 164.898C101.036 165.261 100.332 165.442 99.5322 165.442ZM101.58 160.61C101.58 160.226 101.484 159.879 101.292 159.57C101.1 159.261 100.839 159.021 100.508 158.85C100.188 158.669 99.8255 158.578 99.4202 158.578C99.0575 158.578 98.7215 158.669 98.4122 158.85C98.1135 159.021 97.8575 159.261 97.6442 159.57C97.4415 159.869 97.3135 160.215 97.2602 160.61H101.58Z" fill="black"/>
<path d="M212.239 154.13C213.455 154.13 214.5 154.359 215.375 154.818C216.26 155.277 216.943 155.927 217.423 156.77C217.913 157.613 218.159 158.615 218.159 159.778C218.159 160.93 217.913 161.922 217.423 162.754C216.943 163.575 216.26 164.21 215.375 164.658C214.5 165.106 213.455 165.33 212.239 165.33H208.399V154.13H212.239ZM212.239 163.986C213.647 163.986 214.713 163.618 215.439 162.882C216.175 162.135 216.543 161.101 216.543 159.778C216.543 158.434 216.175 157.383 215.439 156.626C214.713 155.858 213.647 155.474 212.239 155.474H209.999V163.986H212.239ZM223.415 165.442C222.647 165.442 221.964 165.266 221.367 164.914C220.78 164.551 220.316 164.055 219.975 163.426C219.644 162.797 219.479 162.077 219.479 161.266C219.479 160.487 219.644 159.794 219.975 159.186C220.306 158.578 220.759 158.098 221.335 157.746C221.922 157.394 222.583 157.218 223.319 157.218C224.066 157.218 224.727 157.383 225.303 157.714C225.879 158.034 226.327 158.487 226.647 159.074C226.967 159.65 227.122 160.317 227.111 161.074C227.111 161.202 227.106 161.335 227.095 161.474C227.084 161.602 227.068 161.746 227.047 161.906H221.127C221.159 162.333 221.276 162.711 221.479 163.042C221.692 163.362 221.959 163.613 222.279 163.794C222.61 163.975 222.983 164.066 223.399 164.066C223.932 164.066 224.396 163.965 224.791 163.762C225.186 163.549 225.463 163.266 225.623 162.914L226.935 163.378C226.615 164.029 226.146 164.535 225.527 164.898C224.919 165.261 224.215 165.442 223.415 165.442ZM225.463 160.61C225.463 160.226 225.367 159.879 225.175 159.57C224.983 159.261 224.722 159.021 224.391 158.85C224.071 158.669 223.708 158.578 223.303 158.578C222.94 158.578 222.604 158.669 222.295 158.85C221.996 159.021 221.74 159.261 221.527 159.57C221.324 159.869 221.196 160.215 221.143 160.61H225.463ZM234.479 155.938C234.201 155.938 233.961 155.842 233.759 155.65C233.567 155.458 233.471 155.223 233.471 154.946C233.471 154.647 233.567 154.402 233.759 154.21C233.961 154.007 234.201 153.906 234.479 153.906C234.767 153.906 235.012 154.007 235.215 154.21C235.417 154.402 235.519 154.647 235.519 154.946C235.519 155.223 235.417 155.458 235.215 155.65C235.012 155.842 234.767 155.938 234.479 155.938ZM235.231 157.314V165.33H233.711V158.658H228.319V157.314H235.231ZM229.343 156.434C229.343 155.826 229.444 155.314 229.647 154.898C229.86 154.482 230.185 154.183 230.623 154.002C231.06 153.81 231.636 153.746 232.351 153.81V155.138C231.796 155.085 231.407 155.17 231.183 155.394C230.969 155.618 230.863 155.965 230.863 156.434V165.33H229.343V156.434ZM237.802 157.33H239.178L239.274 158.258C239.53 157.927 239.856 157.671 240.25 157.49C240.645 157.309 241.082 157.218 241.562 157.218C242.181 157.218 242.714 157.351 243.162 157.618C243.621 157.874 243.973 158.258 244.218 158.77C244.474 159.282 244.602 159.922 244.602 160.69V165.33H243.098V160.882C243.098 160.135 242.938 159.57 242.618 159.186C242.309 158.791 241.856 158.594 241.258 158.594C240.64 158.594 240.16 158.797 239.818 159.202C239.477 159.597 239.306 160.183 239.306 160.962V165.33H237.802V157.33ZM250.243 165.442C249.475 165.442 248.792 165.266 248.195 164.914C247.608 164.551 247.144 164.055 246.803 163.426C246.472 162.797 246.307 162.077 246.307 161.266C246.307 160.487 246.472 159.794 246.803 159.186C247.134 158.578 247.587 158.098 248.163 157.746C248.75 157.394 249.411 157.218 250.147 157.218C250.894 157.218 251.555 157.383 252.131 157.714C252.707 158.034 253.155 158.487 253.475 159.074C253.795 159.65 253.95 160.317 253.939 161.074C253.939 161.202 253.934 161.335 253.923 161.474C253.912 161.602 253.896 161.746 253.875 161.906H247.955C247.987 162.333 248.104 162.711 248.307 163.042C248.52 163.362 248.787 163.613 249.107 163.794C249.438 163.975 249.811 164.066 250.227 164.066C250.76 164.066 251.224 163.965 251.619 163.762C252.014 163.549 252.291 163.266 252.451 162.914L253.763 163.378C253.443 164.029 252.974 164.535 252.355 164.898C251.747 165.261 251.043 165.442 250.243 165.442ZM252.291 160.61C252.291 160.226 252.195 159.879 252.003 159.57C251.811 159.261 251.55 159.021 251.219 158.85C250.899 158.669 250.536 158.578 250.131 158.578C249.768 158.578 249.432 158.669 249.123 158.85C248.824 159.021 248.568 159.261 248.355 159.57C248.152 159.869 248.024 160.215 247.971 160.61H252.291Z" fill="black"/>
<path d="M375.311 154.13H376.911V165.33H375.311V154.13ZM385.356 158.69L385.18 158.738V153.81H386.7V165.33H385.324L385.212 164.13C384.945 164.493 384.583 164.802 384.124 165.058C383.676 165.314 383.127 165.442 382.476 165.442C381.751 165.442 381.116 165.271 380.572 164.93C380.039 164.589 379.617 164.109 379.308 163.49C379.009 162.871 378.86 162.151 378.86 161.33C378.86 160.509 379.009 159.789 379.308 159.17C379.617 158.551 380.039 158.071 380.572 157.73C381.116 157.389 381.751 157.218 382.476 157.218C383.169 157.218 383.756 157.362 384.236 157.65C384.727 157.927 385.1 158.274 385.356 158.69ZM380.476 161.33C380.476 162.151 380.689 162.813 381.116 163.314C381.543 163.815 382.113 164.066 382.828 164.066C383.265 164.066 383.66 163.959 384.012 163.746C384.364 163.533 384.647 163.223 384.86 162.818C385.073 162.402 385.18 161.906 385.18 161.33C385.18 160.754 385.073 160.263 384.86 159.858C384.647 159.453 384.364 159.143 384.012 158.93C383.66 158.706 383.265 158.594 382.828 158.594C382.124 158.594 381.553 158.845 381.116 159.346C380.689 159.847 380.476 160.509 380.476 161.33ZM392.452 165.442C391.684 165.442 391.001 165.266 390.404 164.914C389.817 164.551 389.353 164.055 389.012 163.426C388.681 162.797 388.516 162.077 388.516 161.266C388.516 160.487 388.681 159.794 389.012 159.186C389.343 158.578 389.796 158.098 390.372 157.746C390.959 157.394 391.62 157.218 392.356 157.218C393.103 157.218 393.764 157.383 394.34 157.714C394.916 158.034 395.364 158.487 395.684 159.074C396.004 159.65 396.159 160.317 396.148 161.074C396.148 161.202 396.143 161.335 396.132 161.474C396.121 161.602 396.105 161.746 396.084 161.906H390.164C390.196 162.333 390.313 162.711 390.516 163.042C390.729 163.362 390.996 163.613 391.316 163.794C391.647 163.975 392.02 164.066 392.436 164.066C392.969 164.066 393.433 163.965 393.828 163.762C394.223 163.549 394.5 163.266 394.66 162.914L395.972 163.378C395.652 164.029 395.183 164.535 394.564 164.898C393.956 165.261 393.252 165.442 392.452 165.442ZM394.5 160.61C394.5 160.226 394.404 159.879 394.212 159.57C394.02 159.261 393.759 159.021 393.428 158.85C393.108 158.669 392.745 158.578 392.34 158.578C391.977 158.578 391.641 158.669 391.332 158.85C391.033 159.021 390.777 159.261 390.564 159.57C390.361 159.869 390.233 160.215 390.18 160.61H394.5ZM402.876 165.33L402.748 164.162C402.502 164.567 402.182 164.882 401.788 165.106C401.404 165.319 400.902 165.426 400.284 165.426C399.708 165.426 399.217 165.335 398.812 165.154C398.406 164.962 398.092 164.701 397.868 164.37C397.654 164.029 397.548 163.634 397.548 163.186C397.548 162.514 397.798 161.959 398.3 161.522C398.801 161.074 399.526 160.797 400.476 160.69L402.748 160.434V159.81C402.748 159.469 402.609 159.181 402.332 158.946C402.054 158.701 401.654 158.578 401.132 158.578C400.641 158.578 400.225 158.695 399.884 158.93C399.542 159.154 399.313 159.49 399.196 159.938L397.852 159.458C398.054 158.754 398.449 158.205 399.036 157.81C399.633 157.415 400.353 157.218 401.196 157.218C402.198 157.218 402.961 157.469 403.484 157.97C404.006 158.471 404.268 159.133 404.268 159.954V165.33H402.876ZM402.748 161.666L400.556 161.938C400.086 162.002 399.734 162.135 399.5 162.338C399.265 162.53 399.148 162.786 399.148 163.106C399.148 163.405 399.26 163.655 399.484 163.858C399.718 164.05 400.044 164.146 400.46 164.146C400.972 164.146 401.398 164.05 401.74 163.858C402.081 163.666 402.332 163.399 402.492 163.058C402.662 162.706 402.748 162.301 402.748 161.842V161.666ZM406.945 157.33V155.09H408.465V157.33H410.465V158.674H408.465V162.61C408.465 163.101 408.561 163.447 408.753 163.65C408.956 163.853 409.207 163.97 409.505 164.002C409.815 164.023 410.135 164.013 410.465 163.97V165.266C410.028 165.362 409.596 165.389 409.169 165.346C408.753 165.314 408.375 165.197 408.033 164.994C407.703 164.791 407.436 164.498 407.233 164.114C407.041 163.719 406.945 163.218 406.945 162.61V158.674H405.793V157.33H406.945ZM415.624 165.442C414.856 165.442 414.173 165.266 413.576 164.914C412.989 164.551 412.525 164.055 412.184 163.426C411.853 162.797 411.688 162.077 411.688 161.266C411.688 160.487 411.853 159.794 412.184 159.186C412.515 158.578 412.968 158.098 413.544 157.746C414.131 157.394 414.792 157.218 415.528 157.218C416.275 157.218 416.936 157.383 417.512 157.714C418.088 158.034 418.536 158.487 418.856 159.074C419.176 159.65 419.331 160.317 419.32 161.074C419.32 161.202 419.315 161.335 419.304 161.474C419.293 161.602 419.277 161.746 419.256 161.906H413.336C413.368 162.333 413.485 162.711 413.688 163.042C413.901 163.362 414.168 163.613 414.488 163.794C414.819 163.975 415.192 164.066 415.608 164.066C416.141 164.066 416.605 163.965 417 163.762C417.395 163.549 417.672 163.266 417.832 162.914L419.144 163.378C418.824 164.029 418.355 164.535 417.736 164.898C417.128 165.261 416.424 165.442 415.624 165.442ZM417.672 160.61C417.672 160.226 417.576 159.879 417.384 159.57C417.192 159.261 416.931 159.021 416.6 158.85C416.28 158.669 415.917 158.578 415.512 158.578C415.149 158.578 414.813 158.669 414.504 158.85C414.205 159.021 413.949 159.261 413.736 159.57C413.533 159.869 413.405 160.215 413.352 160.61H417.672Z" fill="black"/>
<path d="M825.778 154.13H827.378V165.33H825.778V154.13ZM829.791 157.33H831.167L831.263 158.258C831.519 157.938 831.839 157.687 832.223 157.506C832.607 157.314 833.039 157.218 833.519 157.218C834.063 157.218 834.553 157.341 834.991 157.586C835.439 157.821 835.791 158.173 836.047 158.642C836.313 158.173 836.692 157.821 837.183 157.586C837.673 157.341 838.212 157.218 838.799 157.218C839.407 157.218 839.94 157.351 840.399 157.618C840.868 157.874 841.231 158.258 841.487 158.77C841.743 159.282 841.871 159.922 841.871 160.69V165.33H840.351V160.882C840.351 160.135 840.191 159.57 839.871 159.186C839.551 158.791 839.092 158.594 838.495 158.594C837.887 158.594 837.407 158.797 837.055 159.202C836.703 159.607 836.527 160.199 836.527 160.978V165.33H835.007V160.882C835.007 160.135 834.857 159.57 834.559 159.186C834.26 158.791 833.812 158.594 833.215 158.594C832.607 158.594 832.132 158.797 831.791 159.202C831.46 159.607 831.295 160.199 831.295 160.978V165.33H829.791V157.33ZM845.369 163.97L845.529 163.922V168.53H844.025V157.33H845.401L845.513 158.53C845.769 158.167 846.121 157.858 846.569 157.602C847.028 157.346 847.582 157.218 848.233 157.218C848.937 157.218 849.561 157.389 850.105 157.73C850.649 158.071 851.076 158.551 851.385 159.17C851.705 159.778 851.865 160.498 851.865 161.33C851.865 162.151 851.71 162.871 851.401 163.49C851.102 164.109 850.681 164.589 850.137 164.93C849.593 165.271 848.958 165.442 848.233 165.442C847.54 165.442 846.948 165.303 846.457 165.026C845.977 164.738 845.614 164.386 845.369 163.97ZM850.233 161.33C850.233 160.509 850.014 159.847 849.577 159.346C849.15 158.845 848.59 158.594 847.897 158.594C847.449 158.594 847.049 158.701 846.697 158.914C846.345 159.127 846.062 159.437 845.849 159.842C845.636 160.247 845.529 160.743 845.529 161.33C845.529 161.906 845.636 162.397 845.849 162.802C846.062 163.207 846.345 163.522 846.697 163.746C847.049 163.959 847.449 164.066 847.897 164.066C848.59 164.066 849.15 163.815 849.577 163.314C850.014 162.813 850.233 162.151 850.233 161.33ZM853.681 153.81H855.185V165.33H853.681V153.81ZM860.95 165.442C860.182 165.442 859.5 165.266 858.902 164.914C858.316 164.551 857.852 164.055 857.51 163.426C857.18 162.797 857.014 162.077 857.014 161.266C857.014 160.487 857.18 159.794 857.51 159.186C857.841 158.578 858.294 158.098 858.87 157.746C859.457 157.394 860.118 157.218 860.854 157.218C861.601 157.218 862.262 157.383 862.838 157.714C863.414 158.034 863.862 158.487 864.182 159.074C864.502 159.65 864.657 160.317 864.646 161.074C864.646 161.202 864.641 161.335 864.63 161.474C864.62 161.602 864.604 161.746 864.582 161.906H858.662C858.694 162.333 858.812 162.711 859.014 163.042C859.228 163.362 859.494 163.613 859.814 163.794C860.145 163.975 860.518 164.066 860.934 164.066C861.468 164.066 861.932 163.965 862.326 163.762C862.721 163.549 862.998 163.266 863.158 162.914L864.47 163.378C864.15 164.029 863.681 164.535 863.062 164.898C862.454 165.261 861.75 165.442 860.95 165.442ZM862.998 160.61C862.998 160.226 862.902 159.879 862.71 159.57C862.518 159.261 862.257 159.021 861.926 158.85C861.606 158.669 861.244 158.578 860.838 158.578C860.476 158.578 860.14 158.669 859.83 158.85C859.532 159.021 859.276 159.261 859.062 159.57C858.86 159.869 858.732 160.215 858.678 160.61H862.998ZM866.494 157.33H867.87L867.966 158.258C868.222 157.938 868.542 157.687 868.926 157.506C869.31 157.314 869.742 157.218 870.222 157.218C870.766 157.218 871.256 157.341 871.694 157.586C872.142 157.821 872.494 158.173 872.75 158.642C873.016 158.173 873.395 157.821 873.886 157.586C874.376 157.341 874.915 157.218 875.502 157.218C876.11 157.218 876.643 157.351 877.102 157.618C877.571 157.874 877.934 158.258 878.19 158.77C878.446 159.282 878.574 159.922 878.574 160.69V165.33H877.054V160.882C877.054 160.135 876.894 159.57 876.574 159.186C876.254 158.791 875.795 158.594 875.198 158.594C874.59 158.594 874.11 158.797 873.758 159.202C873.406 159.607 873.23 160.199 873.23 160.978V165.33H871.71V160.882C871.71 160.135 871.56 159.57 871.262 159.186C870.963 158.791 870.515 158.594 869.918 158.594C869.31 158.594 868.835 158.797 868.494 159.202C868.163 159.607 867.998 160.199 867.998 160.978V165.33H866.494V157.33ZM884.2 165.442C883.432 165.442 882.75 165.266 882.152 164.914C881.566 164.551 881.102 164.055 880.76 163.426C880.43 162.797 880.264 162.077 880.264 161.266C880.264 160.487 880.43 159.794 880.76 159.186C881.091 158.578 881.544 158.098 882.12 157.746C882.707 157.394 883.368 157.218 884.104 157.218C884.851 157.218 885.512 157.383 886.088 157.714C886.664 158.034 887.112 158.487 887.432 159.074C887.752 159.65 887.907 160.317 887.896 161.074C887.896 161.202 887.891 161.335 887.88 161.474C887.87 161.602 887.854 161.746 887.832 161.906H881.912C881.944 162.333 882.062 162.711 882.264 163.042C882.478 163.362 882.744 163.613 883.064 163.794C883.395 163.975 883.768 164.066 884.184 164.066C884.718 164.066 885.182 163.965 885.576 163.762C885.971 163.549 886.248 163.266 886.408 162.914L887.72 163.378C887.4 164.029 886.931 164.535 886.312 164.898C885.704 165.261 885 165.442 884.2 165.442ZM886.248 160.61C886.248 160.226 886.152 159.879 885.96 159.57C885.768 159.261 885.507 159.021 885.176 158.85C884.856 158.669 884.494 158.578 884.088 158.578C883.726 158.578 883.39 158.669 883.08 158.85C882.782 159.021 882.526 159.261 882.312 159.57C882.11 159.869 881.982 160.215 881.928 160.61H886.248ZM889.744 157.33H891.12L891.216 158.258C891.472 157.927 891.797 157.671 892.192 157.49C892.586 157.309 893.024 157.218 893.504 157.218C894.122 157.218 894.656 157.351 895.104 157.618C895.562 157.874 895.914 158.258 896.16 158.77C896.416 159.282 896.544 159.922 896.544 160.69V165.33H895.04V160.882C895.04 160.135 894.88 159.57 894.56 159.186C894.25 158.791 893.797 158.594 893.2 158.594C892.581 158.594 892.101 158.797 891.76 159.202C891.418 159.597 891.248 160.183 891.248 160.962V165.33H889.744V157.33ZM899.225 157.33V155.09H900.745V157.33H902.745V158.674H900.745V162.61C900.745 163.101 900.841 163.447 901.033 163.65C901.235 163.853 901.486 163.97 901.785 164.002C902.094 164.023 902.414 164.013 902.745 163.97V165.266C902.307 165.362 901.875 165.389 901.449 165.346C901.033 165.314 900.654 165.197 900.313 164.994C899.982 164.791 899.715 164.498 899.513 164.114C899.321 163.719 899.225 163.218 899.225 162.61V158.674H898.073V157.33H899.225Z" fill="black"/>
<path d="M984.023 154.13H992.615V155.474H989.127V165.33H987.527V155.474H984.023V154.13ZM997.866 165.442C997.098 165.442 996.416 165.266 995.818 164.914C995.232 164.551 994.768 164.055 994.426 163.426C994.096 162.797 993.93 162.077 993.93 161.266C993.93 160.487 994.096 159.794 994.426 159.186C994.757 158.578 995.21 158.098 995.786 157.746C996.373 157.394 997.034 157.218 997.77 157.218C998.517 157.218 999.178 157.383 999.754 157.714C1000.33 158.034 1000.78 158.487 1001.1 159.074C1001.42 159.65 1001.57 160.317 1001.56 161.074C1001.56 161.202 1001.56 161.335 1001.55 161.474C1001.54 161.602 1001.52 161.746 1001.5 161.906H995.578C995.61 162.333 995.728 162.711 995.93 163.042C996.144 163.362 996.41 163.613 996.73 163.794C997.061 163.975 997.434 164.066 997.85 164.066C998.384 164.066 998.848 163.965 999.242 163.762C999.637 163.549 999.914 163.266 1000.07 162.914L1001.39 163.378C1001.07 164.029 1000.6 164.535 999.978 164.898C999.37 165.261 998.666 165.442 997.866 165.442ZM999.914 160.61C999.914 160.226 999.818 159.879 999.626 159.57C999.434 159.261 999.173 159.021 998.842 158.85C998.522 158.669 998.16 158.578 997.754 158.578C997.392 158.578 997.056 158.669 996.746 158.85C996.448 159.021 996.192 159.261 995.978 159.57C995.776 159.869 995.648 160.215 995.594 160.61H999.914ZM1004.31 162.802C1004.38 163.122 1004.51 163.373 1004.69 163.554C1004.87 163.735 1005.08 163.869 1005.33 163.954C1005.59 164.029 1005.85 164.066 1006.13 164.066C1006.61 164.066 1006.98 163.97 1007.25 163.778C1007.52 163.586 1007.65 163.346 1007.65 163.058C1007.65 162.813 1007.56 162.621 1007.39 162.482C1007.23 162.333 1007.02 162.215 1006.74 162.13C1006.47 162.045 1006.18 161.965 1005.87 161.89C1005.6 161.815 1005.29 161.73 1004.96 161.634C1004.64 161.538 1004.34 161.41 1004.05 161.25C1003.77 161.079 1003.54 160.866 1003.36 160.61C1003.18 160.343 1003.09 160.007 1003.09 159.602C1003.09 159.122 1003.22 158.706 1003.47 158.354C1003.74 157.991 1004.1 157.714 1004.56 157.522C1005.03 157.319 1005.56 157.218 1006.15 157.218C1006.83 157.218 1007.43 157.367 1007.94 157.666C1008.46 157.954 1008.84 158.391 1009.07 158.978L1007.71 159.426C1007.64 159.223 1007.52 159.058 1007.35 158.93C1007.18 158.802 1006.98 158.717 1006.75 158.674C1006.54 158.621 1006.33 158.594 1006.11 158.594C1005.71 158.594 1005.37 158.674 1005.11 158.834C1004.84 158.994 1004.71 159.229 1004.71 159.538C1004.71 159.709 1004.75 159.853 1004.83 159.97C1004.92 160.077 1005.04 160.167 1005.19 160.242C1005.35 160.306 1005.53 160.365 1005.75 160.418C1005.96 160.471 1006.19 160.53 1006.43 160.594C1006.75 160.69 1007.08 160.797 1007.41 160.914C1007.74 161.021 1008.04 161.159 1008.32 161.33C1008.6 161.501 1008.82 161.725 1008.99 162.002C1009.16 162.279 1009.26 162.621 1009.27 163.026C1009.27 163.495 1009.13 163.911 1008.87 164.274C1008.61 164.637 1008.24 164.925 1007.76 165.138C1007.29 165.341 1006.73 165.442 1006.08 165.442C1005.29 165.442 1004.62 165.266 1004.07 164.914C1003.51 164.562 1003.14 164.018 1002.95 163.282L1004.31 162.802ZM1011.61 157.33V155.09H1013.13V157.33H1015.13V158.674H1013.13V162.61C1013.13 163.101 1013.23 163.447 1013.42 163.65C1013.62 163.853 1013.87 163.97 1014.17 164.002C1014.48 164.023 1014.8 164.013 1015.13 163.97V165.266C1014.69 165.362 1014.26 165.389 1013.83 165.346C1013.42 165.314 1013.04 165.197 1012.7 164.994C1012.37 164.791 1012.1 164.498 1011.9 164.114C1011.71 163.719 1011.61 163.218 1011.61 162.61V158.674H1010.46V157.33H1011.61ZM1026.61 156.018C1026.43 155.826 1026.2 155.677 1025.92 155.57C1025.65 155.453 1025.32 155.394 1024.95 155.394C1024.28 155.394 1023.78 155.581 1023.46 155.954C1023.15 156.327 1023 156.781 1023 157.314C1023 157.709 1023.1 158.029 1023.3 158.274C1023.5 158.509 1023.81 158.685 1024.21 158.802C1024.63 158.919 1025.14 158.983 1025.75 158.994H1029.38V160.354H1025.76C1024.76 160.354 1024.02 160.487 1023.52 160.754C1023.03 161.01 1022.79 161.501 1022.79 162.226C1022.79 162.61 1022.86 162.941 1023 163.218C1023.14 163.485 1023.35 163.693 1023.65 163.842C1023.96 163.991 1024.37 164.066 1024.87 164.066C1025.6 164.066 1026.12 163.89 1026.42 163.538C1026.73 163.175 1026.88 162.621 1026.88 161.874V159.698H1028.44V161.874C1028.44 162.727 1028.29 163.415 1027.99 163.938C1027.7 164.461 1027.29 164.845 1026.76 165.09C1026.22 165.325 1025.59 165.442 1024.85 165.442C1024.04 165.442 1023.36 165.314 1022.82 165.058C1022.28 164.791 1021.86 164.429 1021.57 163.97C1021.3 163.501 1021.16 162.962 1021.16 162.354C1021.16 161.853 1021.25 161.426 1021.43 161.074C1021.61 160.711 1021.86 160.418 1022.18 160.194C1022.51 159.959 1022.89 159.789 1023.32 159.682V159.602C1022.94 159.506 1022.61 159.341 1022.31 159.106C1022.02 158.871 1021.79 158.589 1021.62 158.258C1021.45 157.917 1021.36 157.543 1021.36 157.138C1021.36 156.583 1021.5 156.071 1021.76 155.602C1022.04 155.122 1022.44 154.738 1022.96 154.45C1023.49 154.162 1024.13 154.018 1024.88 154.018C1025.51 154.018 1026.08 154.119 1026.6 154.322C1027.12 154.514 1027.55 154.797 1027.89 155.17L1026.61 156.018ZM1027.89 155.17L1026.61 156.018L1027.89 155.17ZM1026.21 158.994C1026.36 158.994 1026.5 158.973 1026.61 158.93C1026.74 158.877 1026.83 158.781 1026.88 158.642C1026.95 158.493 1026.98 158.279 1026.98 158.002V157.026H1028.45V158.994H1030.45V160.354H1028.45V162.61C1028.45 163.122 1028.57 163.485 1028.8 163.698C1029.05 163.911 1029.39 164.018 1029.83 164.018C1029.91 164.018 1030.01 164.013 1030.12 164.002C1030.22 163.991 1030.34 163.981 1030.45 163.97V165.266C1030.3 165.298 1030.15 165.325 1030 165.346C1029.86 165.367 1029.71 165.378 1029.57 165.378C1029.1 165.378 1028.66 165.287 1028.24 165.106C1027.84 164.925 1027.51 164.631 1027.25 164.226C1027.01 163.821 1026.88 163.282 1026.88 162.61V160.338H1025.7V158.994H1026.21ZM1038.65 154.13V163.986H1043.77V165.33H1037.05V154.13H1038.65ZM1048.82 165.442C1048.05 165.442 1047.37 165.266 1046.77 164.914C1046.18 164.551 1045.72 164.055 1045.38 163.426C1045.05 162.797 1044.88 162.077 1044.88 161.266C1044.88 160.487 1045.05 159.794 1045.38 159.186C1045.71 158.578 1046.16 158.098 1046.74 157.746C1047.33 157.394 1047.99 157.218 1048.72 157.218C1049.47 157.218 1050.13 157.383 1050.71 157.714C1051.28 158.034 1051.73 158.487 1052.05 159.074C1052.37 159.65 1052.53 160.317 1052.52 161.074C1052.52 161.202 1052.51 161.335 1052.5 161.474C1052.49 161.602 1052.47 161.746 1052.45 161.906H1046.53C1046.56 162.333 1046.68 162.711 1046.88 163.042C1047.1 163.362 1047.36 163.613 1047.68 163.794C1048.01 163.975 1048.39 164.066 1048.8 164.066C1049.34 164.066 1049.8 163.965 1050.2 163.762C1050.59 163.549 1050.87 163.266 1051.03 162.914L1052.34 163.378C1052.02 164.029 1051.55 164.535 1050.93 164.898C1050.32 165.261 1049.62 165.442 1048.82 165.442ZM1050.87 160.61C1050.87 160.226 1050.77 159.879 1050.58 159.57C1050.39 159.261 1050.13 159.021 1049.8 158.85C1049.48 158.669 1049.11 158.578 1048.71 158.578C1048.34 158.578 1048.01 158.669 1047.7 158.85C1047.4 159.021 1047.14 159.261 1046.93 159.57C1046.73 159.869 1046.6 160.215 1046.55 160.61H1050.87ZM1059.24 165.33L1059.11 164.162C1058.87 164.567 1058.55 164.882 1058.15 165.106C1057.77 165.319 1057.27 165.426 1056.65 165.426C1056.07 165.426 1055.58 165.335 1055.18 165.154C1054.77 164.962 1054.46 164.701 1054.23 164.37C1054.02 164.029 1053.91 163.634 1053.91 163.186C1053.91 162.514 1054.17 161.959 1054.67 161.522C1055.17 161.074 1055.89 160.797 1056.84 160.69L1059.11 160.434V159.81C1059.11 159.469 1058.98 159.181 1058.7 158.946C1058.42 158.701 1058.02 158.578 1057.5 158.578C1057.01 158.578 1056.59 158.695 1056.25 158.93C1055.91 159.154 1055.68 159.49 1055.56 159.938L1054.22 159.458C1054.42 158.754 1054.82 158.205 1055.4 157.81C1056 157.415 1056.72 157.218 1057.56 157.218C1058.57 157.218 1059.33 157.469 1059.85 157.97C1060.37 158.471 1060.63 159.133 1060.63 159.954V165.33H1059.24ZM1059.11 161.666L1056.92 161.938C1056.45 162.002 1056.1 162.135 1055.87 162.338C1055.63 162.53 1055.51 162.786 1055.51 163.106C1055.51 163.405 1055.63 163.655 1055.85 163.858C1056.09 164.05 1056.41 164.146 1056.83 164.146C1057.34 164.146 1057.77 164.05 1058.11 163.858C1058.45 163.666 1058.7 163.399 1058.86 163.058C1059.03 162.706 1059.11 162.301 1059.11 161.842V161.666ZM1062.8 157.33H1064.18L1064.27 158.402C1064.5 158.125 1064.75 157.895 1065.04 157.714C1065.34 157.522 1065.66 157.389 1066 157.314C1066.35 157.239 1066.72 157.245 1067.09 157.33V158.754C1066.74 158.669 1066.4 158.658 1066.06 158.722C1065.73 158.786 1065.44 158.925 1065.17 159.138C1064.91 159.341 1064.7 159.613 1064.54 159.954C1064.38 160.295 1064.3 160.706 1064.3 161.186V165.33H1062.8V157.33ZM1068.61 157.33H1069.99L1070.08 158.258C1070.34 157.927 1070.67 157.671 1071.06 157.49C1071.46 157.309 1071.89 157.218 1072.37 157.218C1072.99 157.218 1073.52 157.351 1073.97 157.618C1074.43 157.874 1074.78 158.258 1075.03 158.77C1075.28 159.282 1075.41 159.922 1075.41 160.69V165.33H1073.91V160.882C1073.91 160.135 1073.75 159.57 1073.43 159.186C1073.12 158.791 1072.67 158.594 1072.07 158.594C1071.45 158.594 1070.97 158.797 1070.63 159.202C1070.29 159.597 1070.12 160.183 1070.12 160.962V165.33H1068.61V157.33Z" fill="black"/>
<path d="M706.52 61.4741C706.52 60.8661 706.339 60.3807 705.976 60.0181C705.614 59.6554 705.038 59.4741 704.248 59.4741H701.688V63.4581H704.264C704.787 63.4581 705.214 63.3781 705.544 63.2181C705.875 63.0474 706.12 62.8127 706.28 62.5141C706.44 62.2154 706.52 61.8687 706.52 61.4741ZM704.248 58.1301C705.134 58.1301 705.859 58.2847 706.424 58.5941C707 58.8927 707.427 59.2927 707.704 59.7941C707.992 60.2954 708.136 60.8554 708.136 61.4741C708.136 61.8794 708.067 62.2794 707.928 62.6741C707.79 63.0687 707.566 63.4314 707.256 63.7621C706.947 64.0821 706.542 64.3381 706.04 64.5301C705.55 64.7114 704.958 64.8021 704.264 64.8021H701.688V69.3301H700.088V58.1301H704.248ZM705.272 64.2581L708.36 69.3301H706.552L703.576 64.2581H705.272ZM713.62 69.4421C712.852 69.4421 712.169 69.2661 711.572 68.9141C710.985 68.5514 710.521 68.0554 710.18 67.4261C709.849 66.7967 709.684 66.0767 709.684 65.2661C709.684 64.4874 709.849 63.7941 710.18 63.1861C710.511 62.5781 710.964 62.0981 711.54 61.7461C712.127 61.3941 712.788 61.2181 713.524 61.2181C714.271 61.2181 714.932 61.3834 715.508 61.7141C716.084 62.0341 716.532 62.4874 716.852 63.0741C717.172 63.6501 717.327 64.3167 717.316 65.0741C717.316 65.2021 717.311 65.3354 717.3 65.4741C717.289 65.6021 717.273 65.7461 717.252 65.9061H711.332C711.364 66.3327 711.481 66.7114 711.684 67.0421C711.897 67.3621 712.164 67.6127 712.484 67.7941C712.815 67.9754 713.188 68.0661 713.604 68.0661C714.137 68.0661 714.601 67.9647 714.996 67.7621C715.391 67.5487 715.668 67.2661 715.828 66.9141L717.14 67.3781C716.82 68.0287 716.351 68.5354 715.732 68.8981C715.124 69.2607 714.42 69.4421 713.62 69.4421ZM715.668 64.6101C715.668 64.2261 715.572 63.8794 715.38 63.5701C715.188 63.2607 714.927 63.0207 714.596 62.8501C714.276 62.6687 713.913 62.5781 713.508 62.5781C713.145 62.5781 712.809 62.6687 712.5 62.8501C712.201 63.0207 711.945 63.2607 711.732 63.5701C711.529 63.8687 711.401 64.2154 711.348 64.6101H715.668ZM720.028 61.3301L722.332 67.7141L724.652 61.3301H726.252L723.132 69.3301H721.5L718.396 61.3301H720.028ZM728.013 61.3301H729.533V69.3301H728.013V61.3301ZM728.781 59.9221C728.493 59.9221 728.253 59.8261 728.061 59.6341C727.869 59.4421 727.773 59.2074 727.773 58.9301C727.773 58.6421 727.869 58.4021 728.061 58.2101C728.253 58.0074 728.493 57.9061 728.781 57.9061C729.058 57.9061 729.293 58.0074 729.485 58.2101C729.688 58.4021 729.789 58.6421 729.789 58.9301C729.789 59.2074 729.688 59.4421 729.485 59.6341C729.293 59.8261 729.058 59.9221 728.781 59.9221ZM735.526 69.4421C734.758 69.4421 734.076 69.2661 733.478 68.9141C732.892 68.5514 732.428 68.0554 732.086 67.4261C731.756 66.7967 731.59 66.0767 731.59 65.2661C731.59 64.4874 731.756 63.7941 732.086 63.1861C732.417 62.5781 732.87 62.0981 733.446 61.7461C734.033 61.3941 734.694 61.2181 735.43 61.2181C736.177 61.2181 736.838 61.3834 737.414 61.7141C737.99 62.0341 738.438 62.4874 738.758 63.0741C739.078 63.6501 739.233 64.3167 739.222 65.0741C739.222 65.2021 739.217 65.3354 739.206 65.4741C739.196 65.6021 739.18 65.7461 739.158 65.9061H733.238C733.27 66.3327 733.388 66.7114 733.59 67.0421C733.804 67.3621 734.07 67.6127 734.39 67.7941C734.721 67.9754 735.094 68.0661 735.51 68.0661C736.044 68.0661 736.508 67.9647 736.902 67.7621C737.297 67.5487 737.574 67.2661 737.734 66.9141L739.046 67.3781C738.726 68.0287 738.257 68.5354 737.638 68.8981C737.03 69.2607 736.326 69.4421 735.526 69.4421ZM737.574 64.6101C737.574 64.2261 737.478 63.8794 737.286 63.5701C737.094 63.2607 736.833 63.0207 736.502 62.8501C736.182 62.6687 735.82 62.5781 735.414 62.5781C735.052 62.5781 734.716 62.6687 734.406 62.8501C734.108 63.0207 733.852 63.2607 733.638 63.5701C733.436 63.8687 733.308 64.2154 733.254 64.6101H737.574ZM744.254 69.3301H742.814L740.302 61.3301H741.838L743.518 67.5381L745.31 61.3301H746.75L748.478 67.5061L750.142 61.3301H751.63L749.15 69.3301H747.694L745.982 63.5221L744.254 69.3301Z" fill="black"/>
<path d="M521.932 154.13C523.148 154.13 524.193 154.359 525.068 154.818C525.953 155.277 526.636 155.927 527.116 156.77C527.607 157.613 527.852 158.615 527.852 159.778C527.852 160.93 527.607 161.922 527.116 162.754C526.636 163.575 525.953 164.21 525.068 164.658C524.193 165.106 523.148 165.33 521.932 165.33H518.092V154.13H521.932ZM521.932 163.986C523.34 163.986 524.407 163.618 525.132 162.882C525.868 162.135 526.236 161.101 526.236 159.778C526.236 158.434 525.868 157.383 525.132 156.626C524.407 155.858 523.34 155.474 521.932 155.474H519.692V163.986H521.932ZM533.108 165.442C532.34 165.442 531.658 165.266 531.06 164.914C530.474 164.551 530.01 164.055 529.668 163.426C529.338 162.797 529.172 162.077 529.172 161.266C529.172 160.487 529.338 159.794 529.668 159.186C529.999 158.578 530.452 158.098 531.028 157.746C531.615 157.394 532.276 157.218 533.012 157.218C533.759 157.218 534.42 157.383 534.996 157.714C535.572 158.034 536.02 158.487 536.34 159.074C536.66 159.65 536.815 160.317 536.804 161.074C536.804 161.202 536.799 161.335 536.788 161.474C536.778 161.602 536.762 161.746 536.74 161.906H530.82C530.852 162.333 530.97 162.711 531.172 163.042C531.386 163.362 531.652 163.613 531.972 163.794C532.303 163.975 532.676 164.066 533.092 164.066C533.626 164.066 534.09 163.965 534.484 163.762C534.879 163.549 535.156 163.266 535.316 162.914L536.628 163.378C536.308 164.029 535.839 164.535 535.22 164.898C534.612 165.261 533.908 165.442 533.108 165.442ZM535.156 160.61C535.156 160.226 535.06 159.879 534.868 159.57C534.676 159.261 534.415 159.021 534.084 158.85C533.764 158.669 533.402 158.578 532.996 158.578C532.634 158.578 532.298 158.669 531.988 158.85C531.69 159.021 531.434 159.261 531.22 159.57C531.018 159.869 530.89 160.215 530.836 160.61H535.156ZM539.548 162.802C539.623 163.122 539.751 163.373 539.932 163.554C540.113 163.735 540.327 163.869 540.572 163.954C540.828 164.029 541.095 164.066 541.372 164.066C541.852 164.066 542.225 163.97 542.492 163.778C542.759 163.586 542.892 163.346 542.892 163.058C542.892 162.813 542.807 162.621 542.636 162.482C542.476 162.333 542.257 162.215 541.98 162.13C541.713 162.045 541.425 161.965 541.116 161.89C540.839 161.815 540.535 161.73 540.204 161.634C539.884 161.538 539.58 161.41 539.292 161.25C539.015 161.079 538.785 160.866 538.604 160.61C538.423 160.343 538.332 160.007 538.332 159.602C538.332 159.122 538.46 158.706 538.716 158.354C538.983 157.991 539.345 157.714 539.804 157.522C540.273 157.319 540.801 157.218 541.388 157.218C542.071 157.218 542.668 157.367 543.18 157.666C543.703 157.954 544.081 158.391 544.316 158.978L542.956 159.426C542.881 159.223 542.759 159.058 542.588 158.93C542.417 158.802 542.22 158.717 541.996 158.674C541.783 158.621 541.569 158.594 541.356 158.594C540.951 158.594 540.615 158.674 540.348 158.834C540.081 158.994 539.948 159.229 539.948 159.538C539.948 159.709 539.991 159.853 540.076 159.97C540.161 160.077 540.279 160.167 540.428 160.242C540.588 160.306 540.775 160.365 540.988 160.418C541.201 160.471 541.431 160.53 541.676 160.594C541.996 160.69 542.321 160.797 542.652 160.914C542.983 161.021 543.287 161.159 543.564 161.33C543.841 161.501 544.065 161.725 544.236 162.002C544.407 162.279 544.497 162.621 544.508 163.026C544.508 163.495 544.375 163.911 544.108 164.274C543.852 164.637 543.484 164.925 543.004 165.138C542.535 165.341 541.975 165.442 541.324 165.442C540.535 165.442 539.863 165.266 539.308 164.914C538.753 164.562 538.38 164.018 538.188 163.282L539.548 162.802ZM546.58 157.33H548.1V165.33H546.58V157.33ZM547.348 155.922C547.06 155.922 546.82 155.826 546.628 155.634C546.436 155.442 546.34 155.207 546.34 154.93C546.34 154.642 546.436 154.402 546.628 154.21C546.82 154.007 547.06 153.906 547.348 153.906C547.625 153.906 547.86 154.007 548.052 154.21C548.254 154.402 548.356 154.642 548.356 154.93C548.356 155.207 548.254 155.442 548.052 155.634C547.86 155.826 547.625 155.922 547.348 155.922ZM556.621 157.33H557.997V164.018C557.997 164.957 557.773 165.762 557.325 166.434C556.877 167.106 556.231 167.623 555.389 167.986C554.557 168.349 553.549 168.53 552.365 168.53L552.125 167.202C553.554 167.17 554.637 166.882 555.373 166.338C556.109 165.805 556.477 165.031 556.477 164.018V163.938L556.653 163.954C556.397 164.359 556.029 164.711 555.549 165.01C555.079 165.298 554.493 165.442 553.789 165.442C553.074 165.442 552.439 165.271 551.885 164.93C551.341 164.589 550.914 164.109 550.605 163.49C550.306 162.871 550.157 162.151 550.157 161.33C550.157 160.509 550.306 159.789 550.605 159.17C550.914 158.551 551.341 158.071 551.885 157.73C552.439 157.389 553.074 157.218 553.789 157.218C554.226 157.218 554.615 157.277 554.957 157.394C555.309 157.511 555.613 157.671 555.869 157.874C556.125 158.066 556.338 158.285 556.509 158.53L556.621 157.33ZM551.773 161.33C551.773 162.151 551.986 162.813 552.413 163.314C552.85 163.815 553.431 164.066 554.157 164.066C554.583 164.066 554.973 163.959 555.325 163.746C555.677 163.522 555.954 163.207 556.157 162.802C556.37 162.386 556.477 161.895 556.477 161.33C556.477 160.754 556.37 160.263 556.157 159.858C555.954 159.453 555.671 159.143 555.309 158.93C554.957 158.706 554.573 158.594 554.157 158.594C553.431 158.594 552.85 158.845 552.413 159.346C551.986 159.847 551.773 160.509 551.773 161.33ZM560.277 157.33H561.653L561.749 158.258C562.005 157.927 562.33 157.671 562.725 157.49C563.12 157.309 563.557 157.218 564.037 157.218C564.656 157.218 565.189 157.351 565.637 157.618C566.096 157.874 566.448 158.258 566.693 158.77C566.949 159.282 567.077 159.922 567.077 160.69V165.33H565.573V160.882C565.573 160.135 565.413 159.57 565.093 159.186C564.784 158.791 564.33 158.594 563.733 158.594C563.114 158.594 562.634 158.797 562.293 159.202C561.952 159.597 561.781 160.183 561.781 160.962V165.33H560.277V157.33ZM576.418 152.53H578.002L574.146 166.93H572.578L576.418 152.53ZM587.924 159.458C588.447 159.458 588.874 159.378 589.204 159.218C589.546 159.047 589.796 158.813 589.956 158.514C590.116 158.215 590.196 157.869 590.196 157.474C590.196 156.845 590.015 156.354 589.652 156.002C589.29 155.65 588.714 155.474 587.924 155.474H585.348V159.458H587.924ZM591.796 157.474C591.796 157.879 591.727 158.285 591.588 158.69C591.45 159.085 591.226 159.442 590.916 159.762C590.607 160.082 590.202 160.338 589.7 160.53C589.21 160.711 588.618 160.802 587.924 160.802H585.348V165.33H583.748V154.13H587.924C588.799 154.13 589.519 154.285 590.084 154.594C590.66 154.893 591.087 155.298 591.364 155.81C591.652 156.311 591.796 156.866 591.796 157.474ZM593.59 157.33H594.966L595.062 158.402C595.286 158.125 595.542 157.895 595.83 157.714C596.128 157.522 596.448 157.389 596.79 157.314C597.142 157.239 597.504 157.245 597.878 157.33V158.754C597.526 158.669 597.184 158.658 596.854 158.722C596.523 158.786 596.224 158.925 595.958 159.138C595.702 159.341 595.494 159.613 595.334 159.954C595.174 160.295 595.094 160.706 595.094 161.186V165.33H593.59V157.33ZM602.906 165.442C602.149 165.442 601.466 165.277 600.858 164.946C600.261 164.605 599.791 164.13 599.45 163.522C599.109 162.903 598.938 162.178 598.938 161.346C598.938 160.503 599.114 159.773 599.466 159.154C599.818 158.535 600.298 158.061 600.906 157.73C601.514 157.389 602.197 157.218 602.954 157.218C603.711 157.218 604.394 157.389 605.002 157.73C605.621 158.061 606.106 158.535 606.458 159.154C606.81 159.762 606.986 160.482 606.986 161.314C606.986 162.157 606.805 162.887 606.442 163.506C606.09 164.125 605.605 164.605 604.986 164.946C604.367 165.277 603.674 165.442 602.906 165.442ZM602.89 164.066C603.317 164.066 603.717 163.97 604.09 163.778C604.463 163.575 604.767 163.271 605.002 162.866C605.247 162.461 605.37 161.943 605.37 161.314C605.37 160.695 605.253 160.189 605.018 159.794C604.794 159.389 604.495 159.09 604.122 158.898C603.749 158.695 603.349 158.594 602.922 158.594C602.506 158.594 602.117 158.695 601.754 158.898C601.402 159.09 601.114 159.389 600.89 159.794C600.666 160.199 600.554 160.717 600.554 161.346C600.554 161.965 600.661 162.477 600.874 162.882C601.098 163.277 601.386 163.575 601.738 163.778C602.09 163.97 602.474 164.066 602.89 164.066ZM609.336 157.33V155.09H610.856V157.33H612.856V158.674H610.856V162.61C610.856 163.101 610.952 163.447 611.144 163.65C611.347 163.853 611.597 163.97 611.896 164.002C612.205 164.023 612.525 164.013 612.856 163.97V165.266C612.419 165.362 611.987 165.389 611.56 165.346C611.144 165.314 610.765 165.197 610.424 164.994C610.093 164.791 609.827 164.498 609.624 164.114C609.432 163.719 609.336 163.218 609.336 162.61V158.674H608.184V157.33H609.336ZM618.047 165.442C617.289 165.442 616.607 165.277 615.999 164.946C615.401 164.605 614.932 164.13 614.591 163.522C614.249 162.903 614.079 162.178 614.079 161.346C614.079 160.503 614.255 159.773 614.607 159.154C614.959 158.535 615.439 158.061 616.047 157.73C616.655 157.389 617.337 157.218 618.095 157.218C618.852 157.218 619.535 157.389 620.143 157.73C620.761 158.061 621.247 158.535 621.599 159.154C621.951 159.762 622.127 160.482 622.127 161.314C622.127 162.157 621.945 162.887 621.583 163.506C621.231 164.125 620.745 164.605 620.127 164.946C619.508 165.277 618.815 165.442 618.047 165.442ZM618.031 164.066C618.457 164.066 618.857 163.97 619.231 163.778C619.604 163.575 619.908 163.271 620.143 162.866C620.388 162.461 620.511 161.943 620.511 161.314C620.511 160.695 620.393 160.189 620.159 159.794C619.935 159.389 619.636 159.09 619.263 158.898C618.889 158.695 618.489 158.594 618.063 158.594C617.647 158.594 617.257 158.695 616.895 158.898C616.543 159.09 616.255 159.389 616.031 159.794C615.807 160.199 615.695 160.717 615.695 161.346C615.695 161.965 615.801 162.477 616.015 162.882C616.239 163.277 616.527 163.575 616.879 163.778C617.231 163.97 617.615 164.066 618.031 164.066ZM624.477 157.33V155.09H625.997V157.33H627.997V158.674H625.997V162.61C625.997 163.101 626.093 163.447 626.285 163.65C626.487 163.853 626.738 163.97 627.036 164.002C627.346 164.023 627.666 164.013 627.997 163.97V165.266C627.559 165.362 627.127 165.389 626.701 165.346C626.285 165.314 625.906 165.197 625.565 164.994C625.234 164.791 624.967 164.498 624.765 164.114C624.573 163.719 624.477 163.218 624.477 162.61V158.674H623.325V157.33H624.477ZM635.139 157.33H636.707L632.067 168.53H630.579L631.987 165.17L628.819 157.33H630.483L632.803 163.394L635.139 157.33ZM639.496 163.97L639.656 163.922V168.53H638.152V157.33H639.528L639.64 158.53C639.896 158.167 640.248 157.858 640.696 157.602C641.155 157.346 641.709 157.218 642.36 157.218C643.064 157.218 643.688 157.389 644.232 157.73C644.776 158.071 645.203 158.551 645.512 159.17C645.832 159.778 645.992 160.498 645.992 161.33C645.992 162.151 645.837 162.871 645.528 163.49C645.229 164.109 644.808 164.589 644.264 164.93C643.72 165.271 643.085 165.442 642.36 165.442C641.667 165.442 641.075 165.303 640.584 165.026C640.104 164.738 639.741 164.386 639.496 163.97ZM644.36 161.33C644.36 160.509 644.141 159.847 643.704 159.346C643.277 158.845 642.717 158.594 642.024 158.594C641.576 158.594 641.176 158.701 640.824 158.914C640.472 159.127 640.189 159.437 639.976 159.842C639.763 160.247 639.656 160.743 639.656 161.33C639.656 161.906 639.763 162.397 639.976 162.802C640.189 163.207 640.472 163.522 640.824 163.746C641.176 163.959 641.576 164.066 642.024 164.066C642.717 164.066 643.277 163.815 643.704 163.314C644.141 162.813 644.36 162.151 644.36 161.33ZM651.28 165.442C650.512 165.442 649.83 165.266 649.232 164.914C648.646 164.551 648.182 164.055 647.84 163.426C647.51 162.797 647.344 162.077 647.344 161.266C647.344 160.487 647.51 159.794 647.84 159.186C648.171 158.578 648.624 158.098 649.2 157.746C649.787 157.394 650.448 157.218 651.184 157.218C651.931 157.218 652.592 157.383 653.168 157.714C653.744 158.034 654.192 158.487 654.512 159.074C654.832 159.65 654.987 160.317 654.976 161.074C654.976 161.202 654.971 161.335 654.96 161.474C654.95 161.602 654.934 161.746 654.912 161.906H648.992C649.024 162.333 649.142 162.711 649.344 163.042C649.558 163.362 649.824 163.613 650.144 163.794C650.475 163.975 650.848 164.066 651.264 164.066C651.798 164.066 652.262 163.965 652.656 163.762C653.051 163.549 653.328 163.266 653.488 162.914L654.8 163.378C654.48 164.029 654.011 164.535 653.392 164.898C652.784 165.261 652.08 165.442 651.28 165.442ZM653.328 160.61C653.328 160.226 653.232 159.879 653.04 159.57C652.848 159.261 652.587 159.021 652.256 158.85C651.936 158.669 651.574 158.578 651.168 158.578C650.806 158.578 650.47 158.669 650.16 158.85C649.862 159.021 649.606 159.261 649.392 159.57C649.19 159.869 649.062 160.215 649.008 160.61H653.328Z" fill="black"/>
</svg>
