<svg width="271" height="78" viewBox="0 0 271 78" fill="none" xmlns="http://www.w3.org/2000/svg">
<path d="M78.6502 0.0999908V1.41999H80.6302C85.8002 1.41999 87.7802 4.60999 86.6802 8.56999L69.1902 68.85L51.2602 1.41999H59.5102V0.0999908H39.0502V1.41999H46.0902L47.8502 7.91L33.2202 68.41L13.2002 1.41999H21.4502V0.0999908H0.220215V1.41999H8.03022L30.8002 76.55H32.8902L48.8402 11.54L66.6602 76.55H68.7502L88.4402 9.00999C89.7602 4.49999 92.4002 1.41999 97.9002 1.41999H99.8802V0.0999908H78.6502Z" fill="white"/>
<path d="M127.155 1.41999V0.0999908H102.075V1.41999H111.975V74.68H102.075V76H127.155V74.68H117.255V1.41999H127.155Z" fill="white"/>
<path d="M182.824 52.68C181.614 70.5 179.194 74.79 166.654 74.79H153.564V1.30999H164.784V0.0999908H138.384V1.30999H148.284V74.79H138.384V76H184.034V52.68H182.824Z" fill="white"/>
<path d="M217.757 0.0999908H195.317V1.41999H205.217V74.68H195.317V76H217.757C243.057 76 253.617 59.83 253.617 38.05C253.617 16.27 242.837 0.0999908 217.757 0.0999908ZM217.757 74.68H210.717V1.41999H217.757C239.097 1.41999 247.677 14.51 247.677 38.05C247.677 61.59 239.427 74.68 217.757 74.68Z" fill="white"/>
<path d="M266.294 77.54C268.824 77.54 270.694 75.67 270.694 73.36C270.694 70.94 268.824 69.07 266.294 69.07C263.764 69.07 261.894 70.94 261.894 73.36C261.894 75.67 263.764 77.54 266.294 77.54Z" fill="white"/>
</svg>
