<svg width="273" height="83" viewBox="0 0 273 83" fill="none" xmlns="http://www.w3.org/2000/svg">
<path d="M41.4401 19.73C40.2301 8.50998 33.6301 0.47998 22.5201 0.47998C9.10008 0.47998 1.40008 7.62997 1.40008 20.28C1.40008 43.05 29.1201 47.23 29.1201 62.96C29.1201 67.69 25.9301 70.22 21.2001 70.22C16.8001 70.22 13.6101 66.26 13.0601 58.23L0.0800781 60.1C0.630078 71.98 7.89008 82.1 20.5401 82.1C33.3001 82.1 42.1001 74.84 42.1001 61.75C42.1001 40.19 14.3801 33.7 14.3801 20.17C14.3801 15.22 16.8001 12.36 21.2001 12.36C24.2801 12.36 27.9101 14.34 28.4601 21.16L41.4401 19.73Z" fill="white"/>
<path d="M52.477 61.75C52.477 72.97 59.077 82.1 73.377 82.1C87.677 82.1 94.277 72.97 94.277 61.75V20.83C94.277 9.60997 87.677 0.47998 73.377 0.47998C59.077 0.47998 52.477 9.60997 52.477 20.83V61.75ZM66.117 21.16C66.117 15.22 67.877 12.36 73.377 12.36C78.877 12.36 80.637 15.22 80.637 21.16V61.42C80.637 67.36 78.877 70.22 73.377 70.22C67.877 70.22 66.117 67.36 66.117 61.42V21.16Z" fill="white"/>
<path d="M107.477 61.75C107.477 72.97 114.077 82.1 128.377 82.1C142.677 82.1 149.277 72.97 149.277 61.75V20.83C149.277 9.60997 142.677 0.47998 128.377 0.47998C114.077 0.47998 107.477 9.60997 107.477 20.83V61.75ZM121.117 21.16C121.117 15.22 122.877 12.36 128.377 12.36C133.877 12.36 135.637 15.22 135.637 21.16V61.42C135.637 67.36 133.877 70.22 128.377 70.22C122.877 70.22 121.117 67.36 121.117 61.42V21.16Z" fill="white"/>
<path d="M175.457 81V52.84L180.297 44.04H180.517L191.627 81H205.487L188.877 31.17L203.617 1.57997H189.977L175.677 30.95H175.457V1.57997H161.817V81H175.457Z" fill="white"/>
<path d="M249.414 81V69.12H224.994V45.8H242.594V33.92H224.994V13.46H247.874V1.57997H211.354V81H249.414Z" fill="white"/>
<path d="M272.331 81V68.02H259.351V81H272.331Z" fill="white"/>
</svg>
