<svg width="230" height="80" viewBox="0 0 230 80" fill="none" xmlns="http://www.w3.org/2000/svg">
<path d="M58.7999 67.44C57.6999 74.48 55.9399 77.78 52.9699 77.78C49.5599 77.78 49.3399 73.71 48.5699 61.17C47.7999 48.85 43.7299 41.37 31.0799 40.16C43.9499 39.06 52.7499 31.91 52.7499 20.25C52.7499 7.59999 42.9599 2.09999 27.5599 2.09999H0.609863V3.41999H10.5099V76.68H0.609863V78H27.6699V76.68H15.7899V40.71H26.8999C40.9799 40.71 42.6299 51.38 43.0699 61.61C43.5099 71.84 44.2799 79.32 52.3099 79.32C57.8099 79.32 59.0199 73.16 59.7899 67.66L58.7999 67.44ZM29.0999 3.41999C40.6499 3.41999 46.8099 8.36999 46.8099 20.47C46.8099 33.67 39.4399 39.5 25.7999 39.5H15.7899V3.41999H29.0999Z" fill="white"/>
<path d="M118.415 76.68L94.5447 0.119995H92.8947L71.8847 70.96C71.2247 73.27 69.6847 76.68 64.7347 76.68H60.6647V78H84.5347V76.68H78.4847C73.0947 76.68 73.4247 73.16 74.0847 70.96L79.6947 51.82H105.215L112.695 76.68H102.465V78H127.215V76.68H118.415ZM80.0247 50.5L92.2347 8.69999L104.775 50.5H80.0247Z" fill="white"/>
<path d="M202.019 2.09999V3.41999H203.999C209.169 3.41999 211.149 6.60999 210.049 10.57L192.559 70.85L174.629 3.41999H182.879V2.09999H162.419V3.41999H169.459L171.219 9.90999L156.589 70.41L136.569 3.41999H144.819V2.09999H123.589V3.41999H131.399L154.169 78.55H156.259L172.209 13.54L190.029 78.55H192.119L211.809 11.01C213.129 6.49999 215.769 3.41999 221.269 3.41999H223.249V2.09999H202.019Z" fill="white"/>
<path d="M224.77 79.54C227.3 79.54 229.17 77.67 229.17 75.36C229.17 72.94 227.3 71.07 224.77 71.07C222.24 71.07 220.37 72.94 220.37 75.36C220.37 77.67 222.24 79.54 224.77 79.54Z" fill="white"/>
</svg>
