<svg width="337" height="93" viewBox="0 0 337 93" fill="none" xmlns="http://www.w3.org/2000/svg">
<path d="M47.3 29.3H52L55.9 50.6001H56L59.2 29.3H64.6L58.7 62.7001H53.9L49.7 40.6001H49.6L45.7 62.7001H40.9L34.5 29.3H39.9L43.4 50.6001H43.5L47.3 29.3Z" fill="white"/>
<path d="M72.8002 62.8H67.2002L73.4002 29.4H80.5002L86.7002 62.8H81.1002L80.1002 55.4H73.8002L72.8002 62.8ZM74.6002 50.4H79.2002L76.9002 36H76.8002L74.6002 50.4Z" fill="white"/>
<path d="M93 29.3H101.5C107.4 29.3 110.6 32.5 110.6 39.4V52.6001C110.6 59.5001 107.5 62.7001 101.5 62.7001H93V29.3ZM98.7 58.0001H100.7C103.8 58.0001 104.8 56.8 104.8 53.3V38.7001C104.8 35.2001 103.7 34.0001 100.7 34.0001H98.7V58.0001Z" fill="white"/>
<path d="M121.8 62.8H116.2L122.4 29.4H129.5L135.7 62.8H130.1L129.1 55.4H122.8L121.8 62.8ZM123.6 50.4H128.2L125.9 36H125.8L123.6 50.4Z" fill="white"/>
<path d="M165.2 29.3V62.7001H160.2V36.7001H160.1L154.9 62.8H152.1L146.9 36.7001H146.8V62.8H141.8V29.3H149.3L153.4 48.8H153.5L157.6 29.3H165.2Z" fill="white"/>
<path d="M183.7 37.6001C183.5 34.7001 181.9 33.9 180.6 33.9C178.7 33.9 177.7 35.1001 177.7 37.2001C177.7 42.9001 189.4 45.6 189.4 54.7001C189.4 60.2001 185.7 63.3 180.3 63.3C175 63.3 171.9 59.0001 171.7 54.0001L177.2 53.2001C177.4 56.6 178.8 58.2001 180.6 58.2001C182.6 58.2001 183.9 57.1001 183.9 55.1001C183.9 48.5001 172.2 46.7001 172.2 37.1001C172.2 31.8001 175.4 28.8 181.1 28.8C185.8 28.8 188.6 32.2 189.1 36.9L183.7 37.6001Z" fill="white"/>
<path d="M208.7 62.8V29.3H224.7V34.3H214.5V42.9H222.2V47.9H214.5V62.7001H208.7V62.8Z" fill="white"/>
<path d="M233.5 62.8H227.9L234.1 29.4H241.2L247.4 62.8H241.8L240.8 55.4H234.5L233.5 62.8ZM235.3 50.4H239.9L237.6 36H237.5L235.3 50.4Z" fill="white"/>
<path d="M259.5 62.8H253.8V29.3H261.9C268.3 29.3 271.6 32.0001 271.6 39.2001C271.6 44.6 269.5 46.7001 267.6 47.6001L272.5 62.7001H266.5L262.4 48.9C261.7 49 260.5 49.0001 259.4 49.0001V62.8H259.5ZM259.5 44.3H261.5C264.6 44.3 265.8 43.1 265.8 39.2001C265.8 35.2001 264.6 34.1001 261.5 34.1001H259.5V44.3Z" fill="white"/>
<path d="M302.4 29.3V62.7001H297.4V36.7001H297.3L292.1 62.8H289.3L284.1 36.7001H284V62.8H279V29.3H286.5L290.6 48.8H290.7L294.8 29.3H302.4Z" fill="white"/>
<path d="M336.9 92.1H0V0H336.9V92.1ZM4.1 88.1H333V4.1H4.1V88.1Z" fill="white"/>
</svg>
