<svg width="237" height="20" viewBox="0 0 237 20" fill="none" xmlns="http://www.w3.org/2000/svg">
<path d="M0 0.314819V2.31482H6.20001V18.8148H8.29999V2.31482H14.5V0.314819H0Z" fill="#231F20"/>
<path d="M30.7 0.314819V8.51489H20V0.314819H17.9V18.8148H20V10.5149H30.7V18.8148H32.7V0.314819H30.7Z" fill="#231F20"/>
<path d="M39.7 0.314819H37.6V18.8148H39.7V0.314819Z" fill="#231F20"/>
<path d="M58.2 0.314819V15.1149L46.6 0.314819H44.6V18.8148H46.7V3.71484L58.6 18.8148H60.3V0.314819H58.2Z" fill="#231F20"/>
<path d="M77.7 0.314819L67.1 11.4149V0.314819H65V18.8148H67.1V13.8148L71 9.81482L78.1 18.8148H80.7L72.4 8.41492L80.4 0.314819H77.7Z" fill="#231F20"/>
<path d="M83.6 0.314819V18.8148H87.6V11.6149H96.4V7.91492H87.6V4.01489H97.6V0.314819H83.6Z" fill="#231F20"/>
<path d="M109.8 19.1149C104.1 19.1149 100 14.9149 100 9.61487V9.51489C100 4.31489 104.1 0.0148926 109.8 0.0148926C115.5 0.0148926 119.6 4.21489 119.6 9.51489V9.61487C119.7 14.8149 115.5 19.1149 109.8 19.1149ZM115.4 9.61487C115.4 6.41487 113.1 3.81482 109.8 3.81482C106.5 3.81482 104.3 6.41487 104.3 9.61487V9.71484C104.3 12.9148 106.6 15.5149 109.9 15.5149C113.2 15.4149 115.4 12.8149 115.4 9.61487Z" fill="#231F20"/>
<path d="M134 18.8148L130 12.9149H126.8V18.8148H122.7V0.314819H131.1C135.5 0.314819 138.1 2.61492 138.1 6.41492V6.51489C138.1 9.51489 136.5 11.4148 134.1 12.2148L138.6 18.8148H134ZM134 6.61487C134 4.91487 132.8 4.01489 130.8 4.01489H126.8V9.31482H130.9C132.9 9.31482 134 8.21487 134 6.61487Z" fill="#231F20"/>
<path d="M152.2 0.314819L148.1 12.8148L144.2 0.314819H139.9L146.2 18.9149H149.7L153.9 6.81482L158.1 18.9149H161.6L167.9 0.314819H163.6L159.8 12.8148L155.7 0.314819H152.2Z" fill="#231F20"/>
<path d="M176.4 5.11487L178.9 11.1149H174L176.4 5.11487ZM174.6 0.214844L166.7 18.8148H170.8L172.5 14.7148H180.3L182 18.8148H186.2L178.3 0.214844H174.6Z" fill="#231F20"/>
<path d="M200.3 18.8148L196.3 12.9149H193.1V18.8148H189V0.314819H197.4C201.8 0.314819 204.4 2.61492 204.4 6.41492V6.51489C204.4 9.51489 202.8 11.4148 200.4 12.2148L204.9 18.8148H200.3ZM200.4 6.61487C200.4 4.91487 199.2 4.01489 197.2 4.01489H193.2V9.31482H197.3C199.3 9.31482 200.4 8.21487 200.4 6.61487Z" fill="#231F20"/>
<path d="M215.4 18.8148H208.2V0.314819H215.4C221.2 0.314819 225.2 4.31489 225.2 9.51489V9.61487C225.2 14.8149 221.2 18.8148 215.4 18.8148ZM220.9 9.61487C220.9 6.31487 218.7 4.01489 215.3 4.01489H212.2V15.1149H215.3C218.7 15.1149 220.9 12.9149 220.9 9.61487Z" fill="#231F20"/>
<path d="M225.7 0.414917V1.41492H227.2V5.41492H228.4V1.41492H229.9V0.414917H225.7ZM234.8 0.414917L233.5 2.51489L232.2 0.414917H231V5.51489H232.1V2.11487L233.5 4.31482H233.6L235 2.11487V5.51489H236.1V0.414917H234.8Z" fill="#231F20"/>
</svg>
