<svg width="250" height="26" viewBox="0 0 250 26" fill="none" xmlns="http://www.w3.org/2000/svg">
<path d="M4.70007 25.1147L14.9 5.01465L25.1 25.1147H29.7001L17 0.614746H12.8L0 25.1147H4.70007Z" fill="white"/>
<path d="M93.1 25.1147L103.3 5.01465L113.5 25.1147H118.1L105.3 0.614746H101.2L88.4 25.1147H93.1Z" fill="white"/>
<path d="M71.6 8.01465C71.6 3.61465 68.1001 1.21484 61.7001 1.21484H47.1V25.1147H51.3V15.4148V15.1147H60.5L60.7001 15.4148L67.7001 25.1147H72.6L65.2001 15.1147C69.1001 14.5147 71.6 11.7146 71.6 8.01465ZM61.1 4.41479C64.2 4.41479 64.5 4.41465 65.4 5.01465C66.5 5.71465 67 6.71475 67 8.11475C67 9.41475 66.6 10.3147 65.5 11.1147C64.6 11.8147 64 12.0147 62.5 12.1147H51.2001V4.3147H61.1V4.41479Z" fill="white"/>
<path d="M154.7 22.0146C152.1 22.4146 150.9 22.5146 149.6 22.5146C142.7 22.5146 137.5 18.4146 137.5 13.0146C137.5 7.91465 142.2 4.01465 148.7 4.01465C150.8 4.01465 153.3 4.51475 155.1 5.11475C155.5 5.21475 156.1 5.51465 156.9 6.01465L158.7 2.91479C156.9 2.11479 156.1 1.81465 154.7 1.51465C153.2 1.21465 150.7 0.914795 148.6 0.914795C139.7 0.914795 133.1 6.11484 133.1 13.2148C133.1 20.3148 139.8 25.7148 149 25.7148C151.2 25.7148 154.5 25.3147 156.9 24.8147C157.4 24.7147 158.1 24.5148 159.1 24.2148V14.5146H154.9V22.0146H154.7Z" fill="white"/>
<path d="M191.4 0.814697C182.8 0.814697 176.6 6.01484 176.6 13.2148C176.6 20.4148 182.8 25.6147 191.4 25.6147C199.9 25.6147 206.2 20.4148 206.2 13.2148C206.2 6.01484 199.9 0.814697 191.4 0.814697ZM191.4 22.4148C185.5 22.4148 181.1 18.4148 181.1 13.2148C181.1 8.01484 185.6 4.01465 191.4 4.01465C197.3 4.01465 201.7 7.91484 201.7 13.2148C201.6 18.4148 197.2 22.4148 191.4 22.4148Z" fill="white"/>
<path d="M245.5 1.21484V20.4148C245.4 19.7148 244.9 18.7148 244.4 18.2148L229.3 1.21484H225.1V25.1147H229V6.01465C229.2 6.61465 229.5 7.11484 230.4 8.21484L245.5 25.4148H249.3V1.21484H245.5Z" fill="white"/>
</svg>
