<svg width="145" height="65" viewBox="0 0 145 65" fill="none" xmlns="http://www.w3.org/2000/svg">
<path d="M0.418 29V27.708H2.926V2.172H0.418V0.88H7.942V2.172H5.434V13.192H13.528V2.172H11.02V0.88H18.544V2.172H16.036V27.708H18.544V29H11.02V27.708H13.528V14.408H5.434V27.708H7.942V29H0.418ZM20.026 29V27.708H27.208V10.456H21.812V9.544L27.208 9.05L28.88 8.1H29.792V27.708H36.974V29H20.026ZM28.5 5.06C27.9173 5.06 27.4233 4.85733 27.018 4.452C26.6127 4.04666 26.41 3.55266 26.41 2.97C26.41 2.38733 26.6127 1.89333 27.018 1.488C27.4233 1.08267 27.9173 0.88 28.5 0.88C29.0827 0.88 29.5767 1.08267 29.982 1.488C30.3873 1.89333 30.59 2.38733 30.59 2.97C30.59 3.55266 30.3873 4.04666 29.982 4.452C29.5767 4.85733 29.0827 5.06 28.5 5.06ZM46.816 29.38C44.9667 29.38 43.4593 28.81 42.294 27.67C41.154 26.5047 40.584 24.7947 40.584 22.54V9.696H36.252V8.48H40.584L42.294 4.414H43.168V8.48H53.086V9.696H43.168V22.35C43.168 24.098 43.5227 25.4533 44.232 26.416C44.9413 27.3533 45.9927 27.822 47.386 27.822C48.5007 27.822 49.3873 27.556 50.046 27.024C50.73 26.492 51.2113 25.7953 51.49 24.934C51.794 24.0473 51.946 23.0973 51.946 22.084V21.096H53.086V22.084C53.086 22.7933 52.9973 23.5787 52.82 24.44C52.6427 25.276 52.326 26.074 51.87 26.834C51.4393 27.5687 50.806 28.1767 49.97 28.658C49.1593 29.1393 48.108 29.38 46.816 29.38ZM64.942 29.38C63.3967 29.38 62.0033 28.9493 60.762 28.088C59.546 27.2013 58.5833 25.9727 57.874 24.402C57.19 22.8313 56.848 21.0073 56.848 18.93C56.848 17.562 57 16.2447 57.304 14.978C57.6333 13.686 58.1273 12.5207 58.786 11.482C59.47 10.4433 60.306 9.62 61.294 9.012C62.3073 8.404 63.498 8.1 64.866 8.1C66.8673 8.1 68.476 8.784 69.692 10.152C70.9333 11.52 71.554 13.4327 71.554 15.89C71.554 16.2193 71.5413 16.5233 71.516 16.802C71.516 17.0807 71.5033 17.296 71.478 17.448H59.66V20.64C59.66 22.236 59.9387 23.566 60.496 24.63C61.0533 25.6687 61.788 26.454 62.7 26.986C63.612 27.518 64.5747 27.784 65.588 27.784C66.5507 27.784 67.3613 27.5813 68.02 27.176C68.704 26.7707 69.2487 26.2767 69.654 25.694C70.0847 25.086 70.376 24.516 70.528 23.984L71.326 24.25C71.174 24.9847 70.832 25.7573 70.3 26.568C69.768 27.3533 69.0587 28.0247 68.172 28.582C67.2853 29.114 66.2087 29.38 64.942 29.38ZM64.79 9.316C63.726 9.316 62.814 9.63267 62.054 10.266C61.3193 10.874 60.7493 11.7227 60.344 12.812C59.9387 13.876 59.7107 15.092 59.66 16.46H67.26C67.5387 16.46 67.8047 16.4347 68.058 16.384C68.3367 16.308 68.5647 16.118 68.742 15.814C68.9447 15.4847 69.046 14.94 69.046 14.18C69.046 12.6093 68.6407 11.406 67.83 10.57C67.0193 9.734 66.006 9.316 64.79 9.316ZM82.46 29.38C81.1933 29.38 80.142 29.0887 79.306 28.506C78.4953 27.9233 77.8747 27.214 77.444 26.378C77.0133 25.5167 76.7473 24.706 76.646 23.946H76.342V29H75.126V20.108H77.102V20.564C77.102 20.8173 77.1147 21.2353 77.14 21.818C77.1907 22.4007 77.3047 23.0467 77.482 23.756C77.6593 24.4653 77.9253 25.1493 78.28 25.808C78.66 26.4667 79.1793 27.0113 79.838 27.442C80.4967 27.8727 81.3327 28.088 82.346 28.088C83.486 28.088 84.3473 27.7967 84.93 27.214C85.538 26.6313 85.842 25.8713 85.842 24.934C85.842 24.022 85.6013 23.2367 85.12 22.578C84.6387 21.894 84.018 21.2987 83.258 20.792C82.498 20.26 81.6873 19.7407 80.826 19.234C79.99 18.7273 79.192 18.1953 78.432 17.638C77.672 17.0553 77.0513 16.3967 76.57 15.662C76.0887 14.902 75.848 14.0027 75.848 12.964C75.848 11.5453 76.3167 10.38 77.254 9.468C78.1913 8.556 79.458 8.1 81.054 8.1C82.2193 8.1 83.144 8.328 83.828 8.784C84.512 9.21467 85.0187 9.734 85.348 10.342C85.7027 10.9247 85.9433 11.4567 86.07 11.938H86.374V8.48H87.59V15.852H85.994V15.738C85.994 15.0793 85.918 14.3827 85.766 13.648C85.614 12.9133 85.348 12.2167 84.968 11.558C84.6133 10.8993 84.1193 10.3673 83.486 9.962C82.878 9.55667 82.1053 9.354 81.168 9.354C80.0027 9.354 79.2047 9.658 78.774 10.266C78.3433 10.874 78.128 11.5073 78.128 12.166C78.128 12.9767 78.3687 13.6987 78.85 14.332C79.3313 14.94 79.952 15.51 80.712 16.042C81.472 16.5487 82.27 17.0553 83.106 17.562C83.9673 18.0687 84.778 18.626 85.538 19.234C86.298 19.8167 86.9187 20.5007 87.4 21.286C87.8813 22.046 88.122 22.958 88.122 24.022C88.122 25.0353 87.8687 25.9473 87.362 26.758C86.8807 27.5687 86.2093 28.2147 85.348 28.696C84.512 29.152 83.5493 29.38 82.46 29.38ZM90.782 29V27.708H93.974V2.856H90.098V1.944L93.974 1.45L95.646 0.499998H96.558V11.178H96.672C96.8747 10.722 97.1913 10.266 97.622 9.81C98.0527 9.32867 98.5973 8.92333 99.256 8.594C99.9147 8.26467 100.675 8.1 101.536 8.1C102.777 8.1 103.753 8.49267 104.462 9.278C105.197 10.038 105.564 11.1653 105.564 12.66V27.708H108.756V29H102.98V12.888C102.98 10.8613 102.093 9.848 100.32 9.848C99.6107 9.848 98.99 10.0127 98.458 10.342C97.9513 10.6713 97.5333 11.0893 97.204 11.596C96.9 12.0773 96.6847 12.546 96.558 13.002V27.708H98.8V27.746H100.32V29H90.782ZM122.778 27.708V29H109.44V27.708H114V10.456H110.124V9.544L114 9.05L115.672 8.1H116.584V14.788H116.698L116.888 14.218C117.471 12.47 118.319 11.0133 119.434 9.848C120.549 8.68267 121.879 8.1 123.424 8.1C124.387 8.1 125.21 8.31533 125.894 8.746C126.578 9.17667 126.92 9.79733 126.92 10.608C126.92 11.0893 126.793 11.482 126.54 11.786C126.287 12.09 125.894 12.242 125.362 12.242C124.729 12.242 124.26 12.0393 123.956 11.634C123.652 11.2287 123.399 10.8487 123.196 10.494L122.626 9.392C121.714 9.392 120.916 9.72133 120.232 10.38C119.548 11.0133 118.953 11.862 118.446 12.926C117.939 13.9647 117.496 15.092 117.116 16.308L116.584 18.018V27.708H122.778ZM127.946 29V27.708H135.128V10.456H129.732V9.544L135.128 9.05L136.8 8.1H137.712V27.708H144.894V29H127.946ZM136.42 5.06C135.837 5.06 135.343 4.85733 134.938 4.452C134.533 4.04666 134.33 3.55266 134.33 2.97C134.33 2.38733 134.533 1.89333 134.938 1.488C135.343 1.08267 135.837 0.88 136.42 0.88C137.003 0.88 137.497 1.08267 137.902 1.488C138.307 1.89333 138.51 2.38733 138.51 2.97C138.51 3.55266 138.307 4.04666 137.902 4.452C137.497 4.85733 137.003 5.06 136.42 5.06ZM14.82 64.38L5.13 41.732V62.708H8.322V64H1.406V62.708H3.838V37.172H1.406V35.88H5.282L14.44 57.312V37.172H11.248V35.88H18.164V37.172H15.732V64.38H14.82ZM24.662 64.38C23.2687 64.38 22.1667 63.962 21.356 63.126C20.5707 62.2647 20.178 61.226 20.178 60.01C20.178 58.87 20.4567 57.9327 21.014 57.198C21.5967 56.438 22.3187 55.8047 23.18 55.298C24.0413 54.7913 24.89 54.348 25.726 53.968L29.602 52.182V48.496C29.602 47.2547 29.2093 46.2793 28.424 45.57C27.6387 44.8607 26.6507 44.506 25.46 44.506C24.3707 44.506 23.4713 44.772 22.762 45.304C22.0527 45.836 21.5587 46.3553 21.28 46.862C21.8627 47.47 22.2933 47.9513 22.572 48.306C22.876 48.6607 23.028 49.0787 23.028 49.56C23.028 49.9907 22.876 50.396 22.572 50.776C22.2933 51.156 21.8627 51.346 21.28 51.346C20.7227 51.346 20.2793 51.156 19.95 50.776C19.646 50.3707 19.494 49.8767 19.494 49.294C19.494 48.7113 19.6333 48.078 19.912 47.394C20.216 46.6847 20.6593 46.0007 21.242 45.342C21.85 44.6833 22.61 44.1513 23.522 43.746C24.434 43.3153 25.5107 43.1 26.752 43.1C28.0947 43.1 29.1587 43.366 29.944 43.898C30.7547 44.43 31.3247 45.114 31.654 45.95C32.0087 46.7607 32.186 47.6093 32.186 48.496V60.808C32.186 61.872 32.5533 62.404 33.288 62.404C33.7693 62.404 34.1493 62.214 34.428 61.834C34.7067 61.4287 34.8967 61.036 34.998 60.656L35.682 60.884C35.606 61.3907 35.4287 61.9227 35.15 62.48C34.8713 63.012 34.4913 63.468 34.01 63.848C33.554 64.2027 32.984 64.38 32.3 64.38C31.54 64.38 30.894 64.1267 30.362 63.62C29.8553 63.1133 29.602 62.328 29.602 61.264C29.3993 61.72 29.07 62.1887 28.614 62.67C28.158 63.1513 27.6007 63.5567 26.942 63.886C26.2833 64.2153 25.5233 64.38 24.662 64.38ZM22.496 59.136C22.496 60.124 22.8 60.9727 23.408 61.682C24.016 62.366 24.8267 62.708 25.84 62.708C26.4987 62.708 27.0813 62.5687 27.588 62.29C28.12 61.986 28.5507 61.6313 28.88 61.226C29.2347 60.8207 29.4753 60.428 29.602 60.048V53.094L25.992 54.88C25.4093 55.1587 24.852 55.4753 24.32 55.83C23.788 56.1593 23.3447 56.5773 22.99 57.084C22.6607 57.5907 22.496 58.2747 22.496 59.136ZM35.872 64V62.936L39.064 62.632V45.456H35.188V44.544L39.064 44.05L40.736 43.1H41.648V46.178H41.762C41.9647 45.722 42.2813 45.266 42.712 44.81C43.1427 44.3287 43.6873 43.9233 44.346 43.594C45.0047 43.2647 45.7647 43.1 46.626 43.1C47.8673 43.1 48.8427 43.4927 49.552 44.278C50.2867 45.038 50.654 46.1653 50.654 47.66V62.708H53.846V64H48.07V47.888C48.07 45.8613 47.1833 44.848 45.41 44.848C44.7007 44.848 44.08 45.0127 43.548 45.342C43.0413 45.6713 42.6233 46.0893 42.294 46.596C41.99 47.0773 41.7747 47.546 41.648 48.002V62.632L45.41 62.936V64H35.872ZM60.496 64.38C59.1787 64.38 58.0767 63.962 57.19 63.126C56.3287 62.29 55.6827 61.15 55.252 59.706C54.8467 58.262 54.644 56.6407 54.644 54.842C54.644 52.6633 54.91 50.6873 55.442 48.914C55.974 47.1407 56.7593 45.7347 57.798 44.696C58.8367 43.632 60.1287 43.1 61.674 43.1C62.5607 43.1 63.2953 43.29 63.878 43.67C64.486 44.0247 64.9547 44.4173 65.284 44.848V37.856H61.408V36.944L65.284 36.45L66.956 35.5H67.868V62.024H70.566V62.936L67.868 63.43L66.196 64.38H65.284V61.15H65.17C64.9927 61.606 64.6887 62.0873 64.258 62.594C63.8273 63.1007 63.2953 63.5313 62.662 63.886C62.0287 64.2153 61.3067 64.38 60.496 64.38ZM61.294 62.822C62.1553 62.822 62.8647 62.6067 63.422 62.176C64.0047 61.72 64.448 61.1753 64.752 60.542C65.056 59.9087 65.2333 59.3007 65.284 58.718V49.522C65.284 47.622 64.9167 46.2793 64.182 45.494C63.4473 44.7087 62.548 44.316 61.484 44.316C60.2933 44.316 59.3433 44.7593 58.634 45.646C57.9247 46.5073 57.57 47.7993 57.57 49.522V58.528C57.57 60.0733 57.95 61.1753 58.71 61.834C59.47 62.4927 60.3313 62.822 61.294 62.822ZM77.672 64.38C76.2787 64.38 75.1767 63.962 74.366 63.126C73.5807 62.2647 73.188 61.226 73.188 60.01C73.188 58.87 73.4667 57.9327 74.024 57.198C74.6067 56.438 75.3287 55.8047 76.19 55.298C77.0513 54.7913 77.9 54.348 78.736 53.968L82.612 52.182V48.496C82.612 47.2547 82.2193 46.2793 81.434 45.57C80.6487 44.8607 79.6607 44.506 78.47 44.506C77.3807 44.506 76.4813 44.772 75.772 45.304C75.0627 45.836 74.5687 46.3553 74.29 46.862C74.8727 47.47 75.3033 47.9513 75.582 48.306C75.886 48.6607 76.038 49.0787 76.038 49.56C76.038 49.9907 75.886 50.396 75.582 50.776C75.3033 51.156 74.8727 51.346 74.29 51.346C73.7327 51.346 73.2893 51.156 72.96 50.776C72.656 50.3707 72.504 49.8767 72.504 49.294C72.504 48.7113 72.6433 48.078 72.922 47.394C73.226 46.6847 73.6693 46.0007 74.252 45.342C74.86 44.6833 75.62 44.1513 76.532 43.746C77.444 43.3153 78.5207 43.1 79.762 43.1C81.1047 43.1 82.1687 43.366 82.954 43.898C83.7647 44.43 84.3347 45.114 84.664 45.95C85.0187 46.7607 85.196 47.6093 85.196 48.496V60.808C85.196 61.872 85.5633 62.404 86.298 62.404C86.7793 62.404 87.1593 62.214 87.438 61.834C87.7167 61.4287 87.9067 61.036 88.008 60.656L88.692 60.884C88.616 61.3907 88.4387 61.9227 88.16 62.48C87.8813 63.012 87.5013 63.468 87.02 63.848C86.564 64.2027 85.994 64.38 85.31 64.38C84.55 64.38 83.904 64.1267 83.372 63.62C82.8653 63.1133 82.612 62.328 82.612 61.264C82.4093 61.72 82.08 62.1887 81.624 62.67C81.168 63.1513 80.6107 63.5567 79.952 63.886C79.2933 64.2153 78.5333 64.38 77.672 64.38ZM75.506 59.136C75.506 60.124 75.81 60.9727 76.418 61.682C77.026 62.366 77.8367 62.708 78.85 62.708C79.5087 62.708 80.0913 62.5687 80.598 62.29C81.13 61.986 81.5607 61.6313 81.89 61.226C82.2447 60.8207 82.4853 60.428 82.612 60.048V53.094L79.002 54.88C78.4193 55.1587 77.862 55.4753 77.33 55.83C76.798 56.1593 76.3547 56.5773 76 57.084C75.6707 57.5907 75.506 58.2747 75.506 59.136Z" fill="black"/>
</svg>
