<svg width="35" height="279" viewBox="0 0 35 279" fill="none" xmlns="http://www.w3.org/2000/svg">
<path d="M7.55066 2.71484H10.2506L12.4507 14.8148H12.5507L14.3507 2.71484H17.4507L14.1506 21.7148H11.4507L9.05066 9.11485H8.95068L6.75061 21.7148H4.05066L0.450684 2.71484H3.55066L5.55066 14.8148H5.65063L7.55066 2.71484Z" fill="black"/>
<path d="M25.3506 38.0149V19.0149H34.4506V21.8149H28.6505V26.7149H33.0505V29.5149H28.6505V37.9149H25.3506V38.0149Z" fill="black"/>
<path d="M22.6754 0.879166L15.6299 38.7285L17.1045 39.003L24.15 1.15367L22.6754 0.879166Z" fill="black"/>
<path d="M20.1506 60.4148C20.7506 60.3148 20.9507 60.0148 20.9507 59.7148C20.9507 59.3148 20.6506 59.1148 20.2506 59.1148C18.9506 59.1148 18.3507 61.7148 16.3507 61.7148C15.1507 61.7148 14.4507 60.9148 14.4507 59.7148C14.4507 58.5148 15.4507 57.8148 16.5507 57.8148L16.7506 59.0148C15.9506 59.1148 15.6506 59.4148 15.6506 59.8148C15.6506 60.2148 15.8507 60.5148 16.3507 60.5148C17.8507 60.5148 18.2507 57.9148 20.3507 57.9148C21.5507 57.9148 22.2506 58.6148 22.2506 59.9148C22.2506 60.9148 21.4507 61.6148 20.4507 61.7148L20.1506 60.4148Z" fill="black"/>
<path d="M20.1506 67.9148C21.2506 67.9148 22.0507 68.5148 22.0507 69.9148C22.0507 71.2148 21.1506 71.9148 20.1506 71.9148H16.3507C15.2507 71.9148 14.4507 71.3148 14.4507 69.9148C14.4507 68.6148 15.3507 67.9148 16.3507 67.9148H20.1506ZM16.3507 69.2148C15.7507 69.2148 15.5507 69.4148 15.5507 69.9148C15.5507 70.4148 15.8507 70.6148 16.3507 70.6148H20.1506C20.7506 70.6148 20.9507 70.4148 20.9507 69.9148C20.9507 69.4148 20.6506 69.2148 20.1506 69.2148H16.3507Z" fill="black"/>
<path d="M20.1506 78.2148C21.2506 78.2148 22.0507 78.8148 22.0507 80.2148C22.0507 81.5148 21.1506 82.2148 20.1506 82.2148H16.3507C15.2507 82.2148 14.4507 81.6148 14.4507 80.2148C14.4507 78.9148 15.3507 78.2148 16.3507 78.2148H20.1506ZM16.3507 79.5148C15.7507 79.5148 15.5507 79.7148 15.5507 80.2148C15.5507 80.7148 15.8507 80.9148 16.3507 80.9148H20.1506C20.7506 80.9148 20.9507 80.7148 20.9507 80.2148C20.9507 79.7148 20.6506 79.5148 20.1506 79.5148H16.3507Z" fill="black"/>
<path d="M14.5508 88.5148H22.0508V89.8148H19.2507L22.0508 91.1148V92.4148L19.2507 91.0148L14.5508 92.6148V91.3148L18.0508 90.3148L17.2507 89.8148H14.6508V88.5148H14.5508Z" fill="black"/>
<path d="M14.5508 98.6149H22.0508V102.015H20.9508V99.9149H19.0508V101.615H17.9508V99.9149H15.7507V102.215H14.6508V98.6149H14.5508Z" fill="black"/>
<path d="M17.8507 116.315C17.8507 116.715 17.5506 117.015 17.1506 117.015C16.7506 117.015 16.4507 116.715 16.4507 116.315C16.4507 115.915 16.7506 115.615 17.1506 115.615C17.5506 115.615 17.8507 115.915 17.8507 116.315Z" fill="black"/>
<path d="M21.9506 130.715V132.615C21.9506 134.015 21.2506 134.615 19.9506 134.615C19.3506 134.615 18.6506 134.315 18.3506 133.715C18.0506 134.415 17.5505 134.715 16.5505 134.715C15.3505 134.715 14.3506 134.215 14.3506 132.715V130.715H21.9506ZM15.5505 132.015V132.515C15.5505 133.215 15.9505 133.415 16.6505 133.415C17.4505 133.415 17.7505 133.115 17.7505 132.315V131.915H15.5505V132.015ZM18.9506 132.015V132.515C18.9506 133.015 19.2506 133.415 19.9506 133.415C20.6506 133.415 21.0505 133.115 21.0505 132.615V132.115H18.9506V132.015Z" fill="black"/>
<path d="M14.5508 142.415V141.115H22.0508V142.915C22.0508 144.315 21.4508 145.115 19.8508 145.115C18.6508 145.115 18.1508 144.615 17.9508 144.215L14.5508 145.315V144.015L17.6508 143.115C17.6508 142.915 17.6508 142.715 17.6508 142.415H14.5508ZM18.6508 142.415V142.915C18.6508 143.615 18.9507 143.915 19.7507 143.915C20.6507 143.915 20.8508 143.615 20.8508 142.915V142.415H18.6508Z" fill="black"/>
<path d="M14.5508 151.615H22.0508V152.915H14.5508V151.615Z" fill="black"/>
<path d="M20.8508 160.315V159.115H21.9508V162.915H20.8508V161.715H14.5508V160.415H20.8508V160.315Z" fill="black"/>
<path d="M14.5508 169.115H22.0508V170.415H14.5508V169.115Z" fill="black"/>
<path d="M20.1506 179.315C20.7506 179.215 20.9507 178.915 20.9507 178.615C20.9507 178.215 20.6506 178.015 20.2506 178.015C18.9506 178.015 18.3507 180.615 16.3507 180.615C15.1507 180.615 14.4507 179.815 14.4507 178.615C14.4507 177.415 15.4507 176.715 16.5507 176.715L16.7506 177.915C15.9506 178.015 15.6506 178.315 15.6506 178.715C15.6506 179.115 15.8507 179.415 16.3507 179.415C17.8507 179.415 18.2507 176.815 20.3507 176.815C21.5507 176.815 22.2506 177.515 22.2506 178.815C22.2506 179.815 21.4507 180.515 20.4507 180.615L20.1506 179.315Z" fill="black"/>
<path d="M14.5508 186.815H22.0508V188.115H19.0508V189.515H22.0508V190.815H14.5508V189.515H17.8508V188.115H14.5508V186.815Z" fill="black"/>
<path d="M19.5508 207.215H20.1508C20.7508 207.215 21.0508 206.915 21.0508 206.615C21.0508 206.115 20.7507 205.915 20.2507 205.915H16.4508C15.8508 205.915 15.6508 206.115 15.6508 206.615C15.6508 207.115 15.9508 207.215 16.4508 207.215H17.3508V208.515H16.4508C15.3508 208.515 14.5508 207.915 14.5508 206.615C14.5508 205.315 15.4508 204.615 16.4508 204.615H20.2507C21.3507 204.615 22.1508 205.215 22.1508 206.615C22.1508 207.915 21.2508 208.515 20.1508 208.515H19.6508V207.215H19.5508Z" fill="black"/>
<path d="M20.1506 214.915C21.2506 214.915 22.0507 215.515 22.0507 216.915C22.0507 218.215 21.1506 218.915 20.1506 218.915H16.3507C15.2507 218.915 14.4507 218.315 14.4507 216.915C14.4507 215.615 15.3507 214.915 16.3507 214.915H20.1506ZM16.3507 216.215C15.7507 216.215 15.5507 216.415 15.5507 216.915C15.5507 217.415 15.8507 217.615 16.3507 217.615H20.1506C20.7506 217.615 20.9507 217.415 20.9507 216.915C20.9507 216.415 20.6506 216.215 20.1506 216.215H16.3507Z" fill="black"/>
<path d="M14.5508 225.215H22.0508V226.515H15.7507V228.515H14.6508V225.215H14.5508Z" fill="black"/>
<path d="M21.9506 234.615V235.915H16.3506C15.8506 235.915 15.5505 236.115 15.5505 236.615C15.5505 237.115 15.8506 237.315 16.3506 237.315H21.9506V238.615H16.3506C15.0506 238.615 14.3506 237.915 14.3506 236.615C14.3506 235.415 15.0506 234.615 16.3506 234.615H21.9506Z" fill="black"/>
<path d="M21.9507 250.115H14.4507V249.015H20.2506L14.4507 247.815V247.215L20.2506 246.015H14.4507V244.915H21.9507V246.615L17.5507 247.515L21.9507 248.415V250.115Z" fill="black"/>
<path d="M21.9506 256.415V258.315C21.9506 259.715 21.2506 260.315 19.9506 260.315C19.3506 260.315 18.6506 260.015 18.3506 259.415C18.0506 260.115 17.5505 260.415 16.5505 260.415C15.3505 260.415 14.3506 259.915 14.3506 258.415V256.415H21.9506ZM15.5505 257.715V258.215C15.5505 258.915 15.9505 259.115 16.6505 259.115C17.4505 259.115 17.7505 258.815 17.7505 258.015V257.615H15.5505V257.715ZM18.9506 257.715V258.215C18.9506 258.715 19.2506 259.115 19.9506 259.115C20.6506 259.115 21.0505 258.815 21.0505 258.315V257.815H18.9506V257.715Z" fill="black"/>
<path d="M14.5508 266.915H22.0508V268.215H14.5508V266.915Z" fill="black"/>
<path d="M14.5508 275.615V274.415L22.0508 275.815V277.415L14.5508 278.815V277.615L16.2507 277.415V276.015L14.5508 275.615ZM17.3508 276.015V277.015L20.5508 276.515L17.3508 276.015Z" fill="black"/>
</svg>
